<?xml version="1.0" encoding="UTF-8" standalone="no"?>
<!-- Created with Inkscape (http://www.inkscape.org/) -->

<svg
   width="57.430504mm"
   height="35.529045mm"
   viewBox="0 0 57.430504 35.529045"
   version="1.1"
   id="svg34011"
   xml:space="preserve"
   xmlns="http://www.w3.org/2000/svg"
   xmlns:svg="http://www.w3.org/2000/svg"><defs
     id="defs34008"><clipPath
       clipPathUnits="userSpaceOnUse"
       id="clipPath35714"><rect
         style="fill:#424243;fill-opacity:1;paint-order:fill markers stroke"
         id="rect35716"
         width="217.06018"
         height="134.283"
         x="3423.2966"
         y="1696.0127"
         transform="translate(-2547.7136,-1181.0394)" /></clipPath></defs><g
     id="layer1"
     transform="translate(-393.64009,-664.36157)"><path
       style="fill:#424242;fill-opacity:1"
       d="M 1149,783 V 639 H 1263.5 1378 V 783 927 H 1263.5 1149 Z m 90,114 v -16 h -38 -38 v 16 16 h 38 38 z m 85,0 v -16 h -35.5 -35.5 v 16 16 h 35.5 35.5 z m 40,0 v -16 h -13.5 -13.5 v 16 16 h 13.5 13.5 z m -163,-45 v -16 h -19 -19 v 16 16 h 19 19 z m 84,0 v -16 h -35 -35 v 16 16 h 35 35 z m 79,0 v -16 h -33 -33 v 16 16 h 33 33 z m -125,-46 v -16 h -38 -38 v 16 16 h 38 38 z m 85,0 v -16 h -35.5 -35.5 v 16 16 h 35.5 35.5 z m 40,0 v -16 h -13.5 -13.5 v 16 16 h 13.5 13.5 z M 1201,760.75 V 744.5 h -19 -19 V 760.75 777 h 19 19 z m 84,0 V 744.5 h -35 -35 V 760.75 777 h 35 35 z m 79,0.25 v -16 h -33 -33 v 16 16 h 33 33 z m -125,-46 v -16 h -38 -38 v 16 16 h 38 38 z m 85,0 v -16 h -35.5 -35.5 v 16 16 h 35.5 35.5 z m 40,0 v -16 h -13.5 -13.5 v 16 16 h 13.5 13.5 z m -163,-46 v -17 h -19 -19 v 17 17 h 19 19 z m 84,0 v -17 h -35 -35 v 17 17 h 35 35 z m 79,0 v -17 h -33 -33 v 17 17 h 33 33 z M 888,875 v -5 h 23.5 c 22.83333,0 23.5,-0.0567 23.5,-2 0,-1.69987 0.66667,-2 4.4425,-2 h 4.4425 l 0.3075,-4.19885 0.3075,-4.19885 5.75,0.27135 5.75,0.27135 V 852.5725 847 h 24.5 24.5 v 5.33811 5.33811 l 5.4556,-0.0881 5.4555,-0.0881 0.2945,4.5 0.2944,4.5 6,0.2324 c 4.0662,0.1575 6.3672,0.73434 7.1393,1.78972 0.9671,1.32195 3.9738,1.53863 19.8928,1.43361 l 18.7536,-0.12373 4e-4,4.834 3e-4,4.834 -29.1432,0.2651 -29.1432,0.26511 v -6.51511 -6.5151 h -6.5 -6.5 v -4.5 -4.5 h -19.58219 -19.5822 l 0.61028,4.5 0.61028,4.5 H 954.02808 949 v 6.5 6.5 H 918.5 888 v -5 z M 155.64406,866.76638 C 155.28983,861.77588 155,852.58688 155,846.34638 V 835 h 3.5 3.5 v -12 -12 h 4 4 l -0.011,-5.75 c -0.006,-3.1625 -0.28993,-7.4375 -0.63084,-9.5 L 168.73832,792 H 158.36916 148 v 6 6 h -6.09255 -6.09255 l 0.34255,5.50136 0.34255,5.50137 -5.82647,-0.001 -5.82647,-10e-4 0.30777,4.25 0.30776,4.25 -16.7313,0.27418 L 92,824.04836 V 821.02418 818 h -8 -8 v 4.5 4.5 h -5 -5 v 7 7 h -7 -7 v -30 -30 h 15 15 v 4.5 4.5 H 92.5 103 v -2.92857 C 103,782.33405 100.78705,781 92.928571,781 H 86 v -6.9425 -6.9425 l 4.066639,-0.3075 4.066638,-0.3075 -0.01358,-15.25 -0.01358,-15.25 h 3.946945 3.946948 v -8.5 -8.5 h 4.89469 4.89469 l -0.79058,-3.50533 c -0.43482,-1.92793 -0.46836,-3.70447 -0.0745,-3.94786 0.39382,-0.2434 2.82161,-0.5785 5.39508,-0.74468 l 4.67904,-0.30213 8.1e-4,-6.30562 8e-4,-6.30563 -10.63333,0.18257 -10.63334,0.18256 -0.0036,-5.37694 -0.0036,-5.37694 6.13693,-0.29772 6.13692,-0.29771 V 677.45228 668 h -6.5 -6.500002 v 9.5 9.5 h -6 -6 v 11 11 h 7 7.000002 v 5.625 5.625 l -3.125002,-0.625 C 96.15625,719.28125 93.23125,719 91.375,719 88.041667,719 88,718.94444 88,714.5 V 710 H 82 76 V 699 688 H 71 66 V 672.5 657 h 3.952283 3.952282 L 74.202283,650.75 74.5,644.5 79.75,644.19774 85,643.89548 V 638.44774 633 l 11.75,-0.16143 c 6.4625,-0.0888 13.6625,-0.15703 16,-0.15167 4.00755,0.009 4.25,-0.15274 4.25,-2.83858 V 627 h -6.93664 -6.93664 L 102.81336,623.75 102.5,620.5 93.75,620.21107 85,619.92213 v -3.46106 C 85,613.02573 84.966549,613 80.5,613 H 76 v -8.5 -8.5 h 4.5 4.5 v -8 -8 h 3.5 3.5 v -11 -11 h 5 5 v -4.5 -4.5 h 5 5 v -5.5 -5.5 h 5.30832 5.30831 l -0.11339,-5 -0.11339,-5 H 146.69492 171 l -0.001,4.25 -0.001,4.25 h 10.01869 10.01869 l 0.184,14.49567 c 0.16426,12.94025 0.001,14.53083 -1.51737,14.82332 C 188.24304,566.09984 188,567.49322 188,575.57332 V 585 h 5.5 5.5 v 9 9 h -5.5 -5.5 v 8 8 h -4 -4 v 5.5 5.5 h -6 -6 v 5 5 h 4.5 4.5 v 9 9 h 5 5 v 6.5 6.5 l 5.75,0.002 5.75,0.002 -0.31862,-9.50224 -0.31862,-9.50224 H 202.93138 208 v -5.5 -5.5 h 8.5 8.5 v 5.5 5.5 h 5 5 v 11 11 h -5 -5 v 6 6 h -6.5 -6.5 v 5.5 5.5 h -4.5 -4.5 v 5 5 h -16.85819 -16.8582 l -0.20067,14.5 -0.20068,14.5 h 5.6442 5.64419 l -0.33532,6.5021 -0.33533,6.5021 3.25,-0.002 3.25,-0.002 v 6 6 h 4.08206 4.08206 l -0.33206,7.00225 -0.33206,7.00226 3.75,-0.002 3.75,-0.002 v 22 22 h -4 -4 v 13.5 13.5 h -5 -5 v 4.5 4.5 h 6.5 6.5 v 4.5 4.5 h 7.83333 c 4.30834,0 8.02084,0.18653 8.25,0.4145 0.22917,0.22798 0.26167,2.94261 0.0722,6.03251 l -0.34444,5.61801 -27.7615,-0.11251 -27.7615,-0.1125 -0.64407,-9.07363 z M 183,827 v -8 h 4 4 V 801.5 784 h -6.36043 c -3.49823,0 -8.44823,-0.28617 -11,-0.63592 L 169,782.72815 V 787.36408 792 h 6 6 v 9.5 9.5 h -4.5 -4.5 v 12 12 h 5.5 5.5 z M 124,807.5 V 802 h 5.5 5.5 v -5 -5 h -10 -10 l 0.002,5.25 0.002,5.25 -10.00218,-0.31641 L 95,801.86717 V 807.43359 813 h 14.5 14.5 z m 77,-116.94774 v -5.44774 l 5.25,-0.30226 5.25,-0.30226 v -5.75007 -5.75007 l 5.75,7e-5 L 223,673 V 662.5 652 h -6.46617 -6.46617 L 209.78383,662.75 209.5,673.5 h -5.25177 -5.25177 l 0.004,5 0.004,5 -12.00189,-0.3088 L 175,682.8824 V 689.4412 696 h 13 13 z M 87.213788,677.28138 87.5,667.56276 l 4.75,0.29415 4.75,0.29415 -0.0021,-5.32553 -0.0021,-5.32553 10.50211,0.31434 10.50211,0.31434 V 651.56434 645 H 102.08585 86.171682 l 0.479334,4.17229 c 0.263634,2.29477 0.208106,5.25296 -0.123395,6.57376 -0.51197,2.03985 -1.161744,2.37577 -4.315165,2.23081 C 74.400973,657.6178 75,656.41158 75,672.5 V 687 h 5.963788 5.963788 z M 156,629 v -11 h 10.5 10.5 v -8.5 -8.5 l 4.75,0.002 4.75,0.002 -0.32615,-8.00235 -0.32614,-8.00235 H 182.92385 180 v -14 -14 h -9 -9 v 6 6 h -5.58882 -5.58882 l 0.33882,6.00182 0.33882,6.00182 -6.75,-0.002 L 138,581 v 7.43963 7.43964 l 3.75,0.31036 3.75,0.31037 0.28275,11.25 0.28275,11.25 h -4.38307 -4.38306 l -0.18241,6.07902 c -0.13996,4.6644 0.30871,6.87366 1.92805,9.49381 2.83309,4.58404 4.4463,5.36102 11.20499,5.39676 L 156,640 Z m 7,-52 v -8 l 2.75,-0.11402 c 1.5125,-0.0627 4.04558,-0.26522 5.62907,-0.45001 2.87872,-0.33594 2.879,-0.33542 2.25,4.25359 C 173.28308,575.21383 173,579.01634 173,581.13957 V 585 h -5 -5 z M 279.66667,875.33333 C 279.3,874.96667 279,873.69049 279,872.4974 279,870.27014 266.23902,857 264.09723,857 263.42601,857 263,854.72953 263,851.15217 c 0,-5.75041 0.0905,-5.93781 5.43472,-11.25 2.9891,-2.97119 6.2516,-5.90001 7.25,-6.50849 1.52768,-0.93104 1.86043,-2.71342 2.10026,-11.25 L 278.06997,812 H 282.03498 286 v -7 -7 h 8 8 v -5 -5 H 297.5 293 V 765.5 743 h 4 4 v -9.5 -9.5 h 4.5 4.5 v -5 c 0,-2.75 -0.45,-5 -1,-5 -0.55,0 -1,-2.25 -1,-5 v -5 h -5.5 -5.5 v -5.39301 C 297,692.57242 296.38645,692 289.91821,692 H 286 V 672.5 653 h 5.5 5.5 v -5.44774 -5.44774 l 5.25,-0.30226 5.25,-0.30226 0.2999,-5.75 0.29991,-5.75 H 319.5499 331 v -4.5 -4.5 h -8 c -7.86667,0 -8,-0.0417 -8,-2.5 0,-2.41026 -0.23333,-2.5 -6.5,-2.5 H 302 v -5 -5 h -5 -5 v -12 -12 h 3.05902 c 1.7847,0 2.80156,-0.41658 2.44098,-1 -0.36731,-0.59433 0.80997,-1 2.90205,-1 h 3.52008 l 0.28894,-8.75 0.28893,-8.75 4.75,-0.30479 4.75,-0.30479 V 555.94521 550 h 5 5 v -6 -6 h 6.5 6.5 v -5.4942 -5.4942 l 16.25,0.004 c 8.9375,0.002 19.9625,0.2865 24.5,0.63172 l 8.25,0.62766 v 4.14744 4.14744 l 7,-0.0738 7,-0.0738 v 15.2888 15.28879 h -2.5 c -2.48148,0 -2.5,0.0667 -2.5,9 v 9 h 6 6 v 8.5 8.5 h -6 -6 v 8.2992 8.2992 l -3.3906,-0.39583 -3.3906,-0.39584 -0.70758,6.09664 -0.70759,6.09663 H 381.40181 376 v 5.5 c 0,3.025 0.45,5.5 1,5.5 0.55,0 1,0.675 1,1.5 0,0.93333 0.94444,1.5 2.5,1.5 2.2963,0 2.5,0.36667 2.5,4.5 v 4.5 h 4 4 v 15 15 h -2.5 c -2.41231,0 -2.5,0.22983 -2.5,6.55252 v 6.55252 l 7.5,-0.19851 7.5,-0.1985 v -6.35402 -6.35401 h 5.5 5.5 v -5 -5 h 9 9 v 5 5 h 5.5 5.5 v 10.5 10.5 l -5.25,-0.001 -5.25,-10e-4 0.34255,5.50137 L 431.1851,715 H 416.09255 401 l 0.002,-4.75 0.002,-4.75 -8.00235,0.32615 -8.00235,0.32614 V 701.07615 696 h -3.5 -3.5 v 22.5 22.5 h 3.5 3.5 v 6 6 h 4 4 v 6.03785 c 0,5.97825 0.0269,6.03501 2.72728,5.75 3.04316,-0.32119 2.89439,-0.79617 3.12041,9.96215 L 399,782 h 5 5 v 14 14 l -4.25,0.11848 c -2.3375,0.0652 -4.78339,0.0521 -5.43531,-0.029 -0.85033,-0.10579 -1.03337,1.55637 -0.64769,5.88152 l 0.53762,6.02898 H 393.60231 388 v 10.88871 10.88871 l -3.39346,0.63662 c -2.90256,0.54452 -3.48776,1.13926 -4.04531,4.11129 -0.35852,1.91107 -1.19397,3.48835 -1.85654,3.50508 -3.16794,0.08 2.84007,2.08711 6.78199,2.26572 l 4.49941,0.20387 0.007,4.25 0.007,4.25 h 8 8 v 6 6 l -29.25,4e-4 -29.25,3.9e-4 v -14.49969 -14.49969 l 4.25,-7.1e-4 4.25,-7e-4 v -11.5 -11.5 h 3.5 3.5 v -19 -19 h -5.60699 c -4.57315,0 -5.50086,-0.27658 -5.03138,-1.5 0.31658,-0.825 0.33542,-2.12589 0.0419,-2.89087 -0.45251,-1.17923 -0.98032,-1.16808 -3.46861,0.0732 L 346,782.14648 345.9864,793.32324 C 345.96702,809.14119 346.03099,809 338.88337,809 H 333 v 8 8 h -6 -6 v 5.5 5.5 h -4.5 -4.5 v 4.8 c 0,5.91223 -1.19834,7.2 -6.7,7.2 -4.21765,0 -4.3,0.0647 -4.3,3.37644 0,3.3123 0.0803,3.37527 4.22571,3.31482 l 4.22571,-0.0616 -0.30218,4.18519 -0.30218,4.18518 h 5.51745 c 3.0346,0 5.71263,0.3375 5.95119,0.75 0.23855,0.4125 0.20938,3.3375 -0.0648,6.5 l -0.49854,5.75 h -19.7095 c -10.84023,0 -20.00951,-0.3 -20.37617,-0.66667 z M 309.41552,828.5 l 0.0845,-5 h 4.25129 c 4.20455,0 4.25128,-0.0391 4.25,-3.55422 -8.1e-4,-2.23297 1.11394,-5.31275 2.99871,-8.28473 1.65,-2.60178 3,-5.21411 3,-5.80518 0,-0.63937 1.41772,-0.90917 3.5,-0.66608 3.31678,0.38722 3.5023,0.24899 3.54389,-2.64059 0.0241,-1.67706 0.69237,-4.8492 1.48495,-7.0492 2.71131,-7.52592 2.74168,-7.5 -8.78605,-7.5 h -10.2572 l 0.36235,4.55599 c 0.1993,2.5058 0.0625,6.5558 -0.30407,9 L 312.87745,806 h -5.43872 c -3.6843,0 -5.43874,0.40323 -5.43876,1.25 -3e-5,1.35683 -5.42215,5.98022 -8.24997,7.03468 -0.9625,0.3589 -1.75,1.30417 -1.75,2.1006 0,0.79643 -0.44657,1.59805 -0.99239,1.78139 -0.54581,0.18333 -1.28824,3.83732 -1.64983,8.11997 l -0.65745,7.78663 10.31535,-0.28663 10.31535,-0.28664 0.0845,-5 z M 383.25,821.35815 387,820.73832 V 814.86916 809 h 4.5 4.5 l 0.011,-8.75 c 0.006,-4.8125 0.28993,-10.4375 0.63084,-12.5 l 0.61983,-3.75 h -5.63084 -5.63084 v -4.5 -4.5 h -11.5 -11.5 v 4 4 h 6 6 v 19.5 19.5 l 2.25,-0.011 c 1.2375,-0.006 3.9375,-0.28993 6,-0.63084 z M 343,703.05602 V 693 H 331.5 320 v -3.98821 c 0,-3.1875 -0.35135,-3.95877 -1.75,-3.84156 -0.9625,0.0807 -3.4375,0.0754 -5.5,-0.0118 L 309,685 v -6 -6 l 5.75,0.002 5.75,0.002 v -6.20161 -6.2016 l 5.25,0.27392 5.25,0.27392 v -9.57414 -9.57414 h -10.37117 -10.37117 l -0.64636,4.87252 c -0.3555,2.67989 -0.36533,5.60489 -0.0218,6.5 0.53632,1.39763 -0.27327,1.62867 -5.73247,1.63588 l -6.35699,0.008 -0.33359,9.2416 c -0.18347,5.08288 -0.029,13.4041 0.34333,18.4916 l 0.67691,9.25 h 5.40667 5.40668 v 6.04384 c 0,4.25497 0.36998,5.99579 1.25,5.88151 0.6875,-0.0893 4.0625,-0.109 7.5,-0.0438 L 324,704 v 3.83333 c 0,2.10834 0.19563,4.02897 0.43473,4.26807 0.23911,0.2391 4.51411,0.56431 9.5,0.72269 L 343,713.11204 Z M 429,694 v -10 h -6.41821 C 413.38079,684 413,684.26257 413,690.60699 V 696 h -5 -5 v 4 4 h 13 13 z M 363,629.5 V 618 h 11.45132 11.45132 l -0.59985,-8.5 -0.59985,-8.5 h 4.68636 4.68637 l -0.1739,-7.5 -0.1739,-7.5 H 390.36394 387 v -13.86916 -13.86916 l -3.75,-0.61983 c -2.0625,-0.34091 -5.2125,-0.62479 -7,-0.63084 -2.87817,-0.01 -3.25156,0.30362 -3.26365,2.73899 -0.0305,6.14522 -0.88432,7.25 -5.60298,7.25 H 363 v 7 7 h -9 -9 v 7 7 h 4 4 v 11.5 11.5 h -4 -4 v 8 8 h 3.5 c 3.33333,0 3.5,0.16667 3.5,3.5 v 3.5 h 5.5 5.5 z m 8.70765,-44.81947 c -0.27848,-0.72571 -0.26502,-4.32571 0.0299,-8 L 372.27382,570 h 4.2238 4.2238 l 0.6306,5.25 c 1.29014,10.74098 1.28658,10.75 -4.24503,10.75 -3.12931,0 -5.07552,-0.47561 -5.39934,-1.31947 z M 458,842 v -33 h 17 17 v -9.07347 -9.07348 l 8.50233,0.32348 8.50234,0.32347 -0.002,-4.75 L 509,782 h -4 -4 v -7.5 -7.5 h 3.00441 3.00441 L 506.352,755.5 505.69519,744 h 4.21142 c 2.60103,0 3.97098,-0.38905 3.58263,-1.01742 -0.34584,-0.55957 -0.32055,-3.48457 0.0562,-6.5 C 514.22371,731.05391 514.26373,731 517.61522,731 520.5841,731 521,730.68403 521,728.42843 c 0,-2.21663 -0.37956,-2.52718 -2.75,-2.25 -2.58003,0.30169 -2.76901,0.0589 -3.0575,-3.92843 L 514.885,718 H 509.4425 504 V 712.5 707 H 498.5 493 V 695.5 684 h -5 -5 v -7.35331 c 0,-4.04432 -0.28911,-10.11932 -0.64246,-13.5 L 481.71509,657 h 5.54763 5.54762 l -0.54406,-6 -0.54406,-6 h 6.0841 6.0841 l 0.30479,-4.75 0.30479,-4.75 18.25,-0.27256 18.25,-0.27256 v -6.5403 c 0,-5.63 -0.24357,-6.51552 -1.75,-6.36228 -0.9625,0.0979 -6.3625,0.12619 -12,0.0629 L 517,622 v -3 -3 h -6 -6 v -5.5 -5.5 h -5 -5 v -6 -6 h 4.5 4.5 v -6.5 -6.5 h 5.5 5.5 v -7.5 -7.5 h 4.5 4.5 v -7.5 -7.5 l 5.25,0.002 5.25,0.002 v -6.25183 -6.25182 l 5.75,-0.2999 5.75,-0.29991 v -4.95009 -4.9501 h 26.5 26.5 v 5.00696 5.00696 l 7.08309,-0.25696 7.0831,-0.25696 0.0106,14.5 c 0.0102,13.9519 -0.0685,14.51208 -2.08309,14.81955 -1.96143,0.29901 -2.0937,0.94082 -2.0937,10.15855 v 9.83934 l 5.25,-0.15889 5.25,-0.1589 0.28893,8.75 0.28894,8.75 h -4.91394 c -4.7036,0 -4.94068,0.13376 -5.53893,3.125 -0.34375,1.71875 -0.625,5.54375 -0.625,8.5 V 620 h -4.12723 -4.12723 l 0.48044,5 0.48043,5 H 595.35321 589 v 6.5 6.5 h 4.5 4.5 v 5 5 h 4.5 4.5 v 5.5 5.5 h 5.5 5.5 l -0.002,-5.75 -0.002,-5.75 8.09354,0.32901 8.09353,0.32901 -0.34119,4.92161 -0.34118,4.92161 5.5,-0.003 5.5,-0.003 -0.31335,10.45205 -0.31335,10.45204 -5.18665,0.30007 -5.18735,0.3006 -0.2999,5.75 -0.29991,5.75 H 627.9501 623 v 5 5 H 606.5 590 v 12.5 12.5 h 4 4 v 7 7 h 4.5 4.5 v 8.5 8.5 h 3.5 c 3.48148,0 3.5,0.0238 3.5,4.5 v 4.5 h 4.5 4.5 v 7.5 c 0,6.98684 0.14579,7.5 2.13084,7.5 1.90584,0 2.06539,0.39599 1.51101,3.75 -0.34091,2.0625 -0.62479,7.2375 -0.63084,11.5 L 626,809 h -4.5 c -4.47619,0 -4.5,0.0185 -4.5,3.5 0,3.48148 -0.0238,3.5 -4.5,3.5 H 608 v 7.5 7.5 h -3.5 -3.5 v 8.5 8.5 h -4 c -3.77778,0 -4,0.16667 -4,3 0,2.4404 0.4197,3.00255 2.25,3.01365 5.22898,0.0317 6.75,1.06895 6.75,4.60298 V 862 h 6.5 6.5 v 6.5 6.5 H 597.2187 579.43739 L 573.5,869 c -3.34504,-3.38031 -6.82429,-6.00596 -7.9687,-6.01365 -6.02238,-0.0405 -6.05753,-0.1175 -5.72076,-12.53549 L 560.12108,839 H 565.06054 570 V 827.5 816 h 4 4 V 800.5 785 h -12.56183 -12.56184 l 0.21512,8.75 0.21512,8.75 -4.40328,0.29307 -4.40329,0.29306 0.34255,5.45694 L 545.1851,814 H 539.59255 534 v 5.07074 5.07073 l -6.25,-0.2597 -6.25,-0.25971 -0.30479,4.68897 L 520.89042,833 H 514.94521 509 v 5.5 5.5 h -13 -13 v 5 5 h -4 -4 v 4.5 4.5 h 6.5 6.5 v 6 6 h -15 -15 z m 49,-14.02778 v -4.88084 l 6.75,-0.29569 6.75,-0.29569 0.30479,-4.75 0.30479,-4.75 h 6.00423 c 3.6127,0 5.76612,-0.38527 5.40642,-0.96726 -0.32879,-0.532 -0.29737,-3.232 0.0698,-6 L 533.25766,801 H 537.62883 542 l 0.002,-8.25 0.002,-8.25 -12.96362,0.30508 -12.96362,0.30507 -0.28813,8.69493 L 515.5,802.5 l -7.84856,0.29384 -7.84856,0.29384 0.34856,9.20616 0.34856,9.20616 -5.25,0.30226 -5.25,0.30226 -0.002,5.69774 -0.002,5.69774 8.50234,-0.32347 8.50233,-0.32348 v -4.88083 z M 597.16467,822.5021 596.82935,816 H 601.91467 607 v -4.89301 c 0,-5.1738 1.05837,-6.36608 4.98059,-5.61073 2.03033,0.39101 2.06553,0.10288 1.79517,-14.69256 L 613.5,775.71232 601.20524,775.60616 588.91048,775.5 l 0.29476,4.5 0.29476,4.5 4.75,-0.27962 4.75,-0.27961 v 5.42262 C 599,795.24157 598.30498,796 592.91821,796 H 590 v 10 10 l -4.75,-0.002 -4.75,-0.002 0.33533,6.5021 0.33532,6.5021 8.16468,0.002 8.16467,0.002 z M 539,710.5 V 704 h -7.5 -7.5 v -4 c 0,-3.98168 -0.0178,-4 -3.89301,-4 C 515.717,696 515,695.00574 515,688.91821 V 685 h -5 -5 v 11 11 h 5.5 5.5 v 5 5 H 527.5 539 Z M 532,686 v -9 h -7.5 -7.5 v 3.5 c 0,3.48148 0.0238,3.5 4.5,3.5 h 4.5 v 5.5 c 0,5.44444 0.0303,5.5 3,5.5 h 3 z m 89.54327,3.5 -0.68718,-5.5 H 626.42804 632 l 0.0743,-7.25 c 0.0409,-3.9875 0.26305,-8.2625 0.49373,-9.5 0.40459,-2.17048 0.15456,-2.25 -7.07431,-2.25 H 618 v 5.5 5.5 h -5 -5 v 3.5 3.5 h -6.5 -6.5 v 6 6 h 13.61522 13.61523 z M 504,675 v -10 h 13.5 13.5 v -4 -4 h 5.5 5.5 v -6 -6 H 523.5 505 v 6.5 6.5 l -5.75,-0.002 -5.75,-0.002 0.27835,12.25189 c 0.1531,6.73854 0.47648,12.81439 0.71862,13.50189 0.26462,0.75133 2.24801,1.25 4.97165,1.25 L 504,685 Z M 577.78174,630.73792 578.06347,619 H 588.03174 598 v -8.5 -8.5 h 4 4 v -7.5 c 0,-6.83333 -0.17778,-7.5 -2,-7.5 -1.90476,0 -2,-0.66667 -2,-14 v -14 h -8.5 -8.5 v 5.4501 5.45009 l 5.75,0.29991 c 3.1625,0.16494 5.6375,0.6374 5.5,1.0499 -0.1375,0.4125 -0.25,3.675 -0.25,7.25 v 6.5 h -5 -5 v -7 -7 h -5 -5 v 6 6 h -8.5 -8.5 v 5.9425 5.9425 l 4.01765,0.3075 c 2.20971,0.16913 4.00971,0.645 4,1.0575 -0.01,0.4125 -0.0177,5.7 -0.0177,11.75 v 11 h -4.5 -4.5 v 8 c 0,7.86667 0.0417,8 2.5,8 1.40946,0 2.5,0.57829 2.5,1.32569 0,2.27644 4.34317,5.50624 8,5.94921 6.75445,0.8182 6.47372,1.29577 6.78174,-11.53698 z M 759,864 v -11 h 3.5 3.5 v -11.42804 -11.42805 l 5.37686,-0.67179 5.37686,-0.6718 0.17663,-17.40016 0.17662,-17.40016 -9.30349,-0.002 -9.30348,-0.002 0.329,7.50233 0.32901,7.50233 H 753.079 747 v 5 5 h -6 -6 v 5 5 H 714.5 694 v 5 5 h -4.5 -4.5 v 10 10 H 674.5 664 v -31.5 -31.5 h 24 c 20.66667,0 24,-0.20833 24,-1.5 0,-1 -1,-1.5 -3,-1.5 -2.88889,0 -3,-0.16667 -3,-4.5 v -4.5 l -4.75,-0.002 -4.75,-0.002 v -14.99887 -14.99887 l 4.83811,4.1e-4 4.83812,4e-4 -0.33812,-9.75 -0.33811,-9.75 h 4.25129 4.2513 l -0.001,-8.25 L 714,718 h -4 -4 v -6.04384 c 0,-4.25497 -0.36998,-5.99579 -1.25,-5.88151 -0.6875,0.0893 -3.1625,0.109 -5.5,0.0438 L 695,706 v -6 -6 l -3.25,-0.17105 c -1.7875,-0.0941 -4.15,-0.21461 -5.25,-0.26785 -1.89547,-0.0918 -2.01443,-0.89291 -2.27605,-15.32895 L 683.94791,663 H 688.97395 694 v -6 -6 h 4.5 4.5 v -5 -5 h 5.57414 5.57414 l -0.28043,-5.25 -0.28043,-5.25 10.70629,-0.28383 L 735,629.93234 V 626.96617 624 h -7 -7 v -3 -3 h -6.5 -6.5 v -4.5725 -4.5725 l -5.75,0.26891 -5.75,0.26891 -0.29044,-8.19641 L 695.91912,593 H 701.95956 708 v -5.0725 -5.0725 l -5.75,0.26991 -5.75,0.26991 -0.29772,-6.19741 -0.29771,-6.19741 6.29771,0.002 6.29772,0.002 -0.33247,-5.87588 -0.33247,-5.87589 5.58247,0.32221 5.58247,0.3222 v -5.44814 -5.44814 h 5.5 5.5 v -5.5 -5.5 h 4.5 4.5 v -5.5 -5.5 h 24.5 24.5 v 4.84762 4.84763 l 8.25,-0.0579 8.25,-0.0579 0.27822,13.7103 0.27822,13.7103 H 802.52822 800 v 10.5 10.5 h 5.5 5.5 v 8.5 8.5 h -5.5 -5.5 v 8.5 8.5 h -4 -4 v 5.5 5.5 h -6.5 -6.5 v 6 6 h 5.5 5.5 v 5.5 5.5 h 3.5 3.5 v 13.5 13.5 h -3.5 -3.5 v 9 9 h 11.5 11.5 v -4.95431 -4.95431 l 6.75,-0.29569 6.75,-0.29569 -0.0628,-4.75 -0.0628,-4.75 h 5.81284 5.81284 v -10.5 -10.5 l -3.25,-0.011 c -1.7875,-0.006 -4.9375,-0.28993 -7,-0.63084 l -3.75,-0.61983 v 11.13084 11.13084 h -5.99247 -5.99246 l 0.24246,4.75 c 0.16864,3.30361 -0.13816,4.71955 -1.00753,4.65 -0.6875,-0.055 -3.5,-0.1675 -6.25,-0.25 l -5,-0.15 v -6.5 -6.5 h 4.91667 c 2.99766,0 5.11353,0.48788 5.42105,1.25 0.27741,0.6875 0.53991,-3.5875 0.58333,-9.5 L 811,655 h 6 6 v -4.5 -4.5 h 8 8 v 5 5 h 5 5 v 10.5 10.5 h -5 -5 v 5.5 5.5 l -4.25,0.0136 c -8.21746,0.0264 -8.75,0.46737 -8.75,7.24544 v 6.02582 l -6,-0.62712 -6,-0.62713 v 5.53605 5.53605 l -14.50156,-0.30138 -14.50155,-0.30138 0.002,14.75 0.002,14.75 h 4.5 4.5 v 11 c 0,6.05 0.3375,10.94671 0.75,10.88158 0.4125,-0.0651 1.9875,-0.0651 3.5,0 L 801,762 v 9 9 h 5 5 v 25 25 h -5 -5 v 10.5 10.5 h -6 c -4.66667,0 -6,0.33333 -6,1.5 0,1.15152 1.27778,1.5 5.5,1.5 h 5.5 v 4 4 h 9 9 v 6.5 6.5 H 788.5 759 Z m 28.44012,-27.75 C 787.14049,829.79604 787.31802,830 782,830 h -5 v 4.5 4.5 h 5.2839 c 5.12853,0 5.28014,-0.0809 5.15622,-2.75 z M 799,807.52237 v -22.59234 l -10.25,0.28499 -10.25,0.28498 -0.31336,3.25 -0.31336,3.25 H 782.93664 788 v 18.75578 18.75577 l 5.5,0.30158 5.5,0.30158 z M 779.15789,789 c 0,-1.375 0.22698,-1.9375 0.50439,-1.25 0.27741,0.6875 0.27741,1.8125 0,2.5 -0.27741,0.6875 -0.50439,0.125 -0.50439,-1.25 z m -45.78684,24.5 -0.64641,-5.5 h 6.76268 6.76268 l -0.625,-3.125 c -0.34375,-1.71875 -0.625,-4.86875 -0.625,-7 V 794 H 732.5 720 v 7 7 h -7 -7 v 5.5 5.5 h 14.00874 14.00873 z m 4.51032,-102.75 -0.26009,-6.25 4.18936,-0.3075 L 746,703.885 V 699.4425 695 h -8.375 c -4.60625,0 -9.77769,-0.28054 -11.49208,-0.62342 -2.96921,-0.59384 -3.08863,-0.80136 -2.51728,-4.3744 0.69481,-4.34511 -0.14968,-5.16909 -6.11564,-5.96712 l -4,-0.53506 -0.29381,-7.25 -0.29381,-7.25 H 718.45619 724 v -6 -6 h 6 6 v -8.13084 -8.13084 l -3.75,0.61983 c -2.0625,0.34091 -6.7875,0.62479 -10.5,0.63084 L 715,642 v 4.5 4.5 h -5 -5 v 6.5 6.5 h -5.02673 -5.02674 l 0.27674,14.75 0.27673,14.75 5.25,0.30226 5.25,0.30226 v 5.56097 5.56096 l 5,-0.53752 5,-0.53752 v 3.29929 c 0,1.81462 0.28125,4.70555 0.625,6.4243 L 717.25,717 h 10.44574 10.44573 z M 769,629.5 V 618 h 9.86916 9.86916 l 0.61983,-3.75 c 0.34091,-2.0625 0.62479,-5.8875 0.63084,-8.5 L 790,601 h 4.5 4.5 v -7.5 -7.5 h -4 -4 v -14 -14 l -4.75,-0.0136 c -2.6125,-0.008 -5.7625,-0.285 -7,-0.61664 -2.17904,-0.58396 -2.25,-0.37854 -2.25,6.51366 v 7.11663 h 4.5 4.5 v 7.5 7.5 h -5 -5 v -7.5 -7.5 h -4 -4 v 5.5 5.5 h -7 -7 v 7.5 c 0,7.33333 0.0556,7.5 2.5,7.5 h 2.5 v 11 11 h -4 -4 v 6.5 c 0,6.26667 0.0897,6.5 2.5,6.5 2.2963,0 2.5,0.36667 2.5,4.5 v 4.5 h 6.5 6.5 v -11.5 z m -381.92105,55.91667 c 0.048,-1.16495 0.28494,-1.4019 0.60416,-0.60417 0.28887,0.72187 0.25335,1.58438 -0.0789,1.91667 -0.33229,0.33229 -0.56864,-0.25834 -0.52522,-1.3125 z M 897.99991,605.75 898,595 h 4 c 3.99386,0 4,-0.006 4,-3.9635 v -3.9635 l 4.5,0.0903 4.5,0.0903 v 3.87317 3.87318 h -4.5 -4.5 v 7.5 7.5 h 79.54381 79.54379 l -0.2938,-7.25 -0.2938,-7.25 -3.75,-0.31037 c -3.6627,-0.30313 -3.75,-0.40436 -3.75,-4.34651 v -4.03615 l -5.0006,0.34652 -5.0006,0.34651 6e-4,-3.83694 6e-4,-3.83694 -11.25,0.2896 c -14.0025,0.36045 -14.5671,0.49934 -14.9434,3.67604 -0.2485,2.0973 -0.9229,2.65743 -3.5566,2.95371 l -3.25,0.36563 -0.1153,-11.30555 c -0.063,-6.21805 -0.176,-11.98055 -0.25,-12.80555 -0.144,-1.60333 1.7652,-2.81525 4.6153,-2.92971 1.4944,-0.06 1.75,0.87913 1.75,6.42971 v 6.5 h 13.5 13.5 v 3.5 3.5 h 5.5433 5.5433 l -0.2933,3.75 c -0.2874,3.67491 -0.2232,3.75 3.2067,3.75 3.3333,0 3.5238,0.19048 4,4 0.4786,3.82916 0.6388,3.9861 3.75,3.67463 l 3.25,-0.32536 v 10.56447 10.56447 l -87.00009,0.2609 -87.00008,0.26089 8e-5,-10.75 z M 1414,581.54569 V 575 h -14.5 -14.5 v -8.5 -8.5 h 4.0707 4.0708 l -0.2605,-6.25 -0.2604,-6.25 3.6897,-0.31037 3.6897,-0.31036 V 539.43963 534 h 4 4 v -4.5 -4.5 h 9.5 9.5 v 20 20 h 3.7574 3.7575 l -0.01,4.9969 -0.01,4.99691 -3.8207,0.003 -3.8208,0.003 0.2584,6.25 0.2583,6.25 -6.6876,0.29569 -6.6876,0.29569 V 581.5455 Z M 1415,553 v -12 h -2.4501 c -2.2813,0 -2.4708,0.39617 -2.75,5.75 l -0.2999,5.75 -4,0.0715 -4,0.0715 v 6.17669 6.17669 l 6.75,0.002 6.75,0.002 v -12 z m 58,28.5 V 575 h -16 -16 v -8.5 -8.5 h 4 4 v -5.5 -5.5 h 4.5 4.5 v -5.5 -5.5 h 4 4 v -5.5 -5.5 h 10 10 v 20 20 h 3.5523 3.5522 l -0.3022,5.25 -0.3023,5.25 -3.25,-0.32537 -3.25,-0.32536 V 581.42463 588 h -6.5 -6.5 z m 0.9929,-20.75 c 0,-2.3375 -0.2962,-7.31099 -0.6495,-11.05221 l -0.6424,-6.80221 -3.1005,0.30221 c -3.0549,0.29776 -3.1005,0.38312 -3.1005,5.80221 v 5.5 l -4.75,0.30479 -4.75,0.30479 V 560.05479 565 h 8.5 8.5 l -0.01,-4.25 z m -558.06721,25 c -0.0409,-0.6875 -0.26305,-2.2625 -0.49373,-3.5 -0.39354,-2.11119 -0.0805,-2.25 5.07431,-2.25 H 926 v -3.5 -3.5 h 12 12 v -6 -6 l 3.75,-0.002 3.75,-0.002 -0.31641,10.00218 -0.31642,10.00218 h -13.32518 -13.32517 l -0.77065,2.75 -0.77064,2.75 -0.71945,-3 -0.71945,-3 -0.11832,3.25 L 927,587 h -5.5 c -3.6937,0 -5.5244,-0.41052 -5.57431,-1.25 z M 1207,583.02605 C 1207,580.06146 1206.8985,580 1202,580 h -5 V 556.5 533 h 4.9425 4.9425 l 0.3075,-4.25 0.3075,-4.25 h 15 15 l 0.3048,4.75 0.3048,4.75 h 3.9452 3.9452 v 23 23 h -3.9336 c -3.5478,0 -3.9646,0.2697 -4.25,2.75 l -0.3164,2.75 -15.25,0.27605 -15.25,0.27604 z m 24.0057,-9.77605 c 0,-2.0625 0.2978,-11.5125 0.6549,-21 L 1232.3098,535 H 1222.6549 1213 l -0.1481,8.75 c -0.081,4.8125 -0.2427,14.2625 -0.3583,21 l -0.2101,12.25 h 9.3583 9.3582 l 0.01,-3.75 z M 1270,583 c 0,-2.93333 -0.1111,-3 -5,-3 h -5 V 556.5 533 h 4.5 4.5 v -4.55439 -4.55438 l 15.75,0.30438 15.75,0.30439 0.3048,4.75 0.3048,4.75 h 4.4452 4.4452 v 23.10069 23.1007 l -4.5,-0.3579 c -4.4856,-0.35675 -4.5,-0.34744 -4.5,2.8993 V 586 h -15.5 -15.5 z m 25,-27 v -21 h -9.5 -9.5 v 21 21 h 9.5 9.5 z m 39,27 c 0,-2.93333 -0.1111,-3 -5,-3 h -5 V 556.5 533 h 5 5 v -4.5 -4.5 h 15 15 v 5 5 h 5 5 v 22.5 22.5 h -4.5 c -4.4762,0 -4.5,0.0185 -4.5,3.5 v 3.5 h -15.5 -15.5 z m 24.3503,-15.15362 c 0.3573,-5.0345 0.6497,-14.4845 0.6497,-21 V 535 h -9.5 -9.5 v 21 21 h 8.8503 8.8502 z M 959,556.25721 C 959,553.1238 959.15203,553 963,553 c 3.90476,0 4,-0.0833 4,-3.5 V 546 h 19.05902 c 13.13468,0 18.85598,0.32851 18.40588,1.05684 -0.3593,0.58125 -0.3772,2.15625 -0.04,3.5 0.5362,2.13616 1.1763,2.44316 5.0942,2.44316 4.4278,0 4.4809,0.0402 4.4809,3.39446 0,3.34948 -0.056,3.39255 -4.25,3.25 -4.0289,-0.13695 -4.2663,-0.31352 -4.5634,-3.39446 L 1004.8733,553 H 986.43664 968 v 2.89931 c 0,2.71652 -0.28369,2.92187 -4.5,3.2572 -4.48555,0.35675 -4.5,0.34744 -4.5,-2.8993 z M 216,457.5 V 442 H 212.5 209 V 433.5 425 H 203.5 198 V 412.5 400 h -5 -5 v -5 -5 h -8 -8 v 4.5 c 0,4.47619 -0.0185,4.5 -3.5,4.5 H 165 v 5.60069 5.6007 l -4.5,-0.3579 -4.5,-0.3579 v 4.7572 V 419 h -5.5 -5.5 v 4.5 4.5 H 127 109 V 423.5 419 H 97 85 v 5.5 5.5 h -5 -5 v 6.04772 6.04771 L 68.75,441.79772 62.5,441.5 62.216877,411.75 61.933754,382 H 82.966877 104 v 3.5 3.5 h 9.5 9.5 v -5 -5 H 116.5 110 V 359.5 340 h 5 5 v -5 -5 h -8.9501 -8.95009 l -0.29991,-5.75 c -0.22199,-4.25615 -0.6896,-5.77538 -1.7999,-5.84769 -0.825,-0.0537 -2.9625,-0.16622 -4.75,-0.25 L 92,318 v -8 -8 h 5 5 v 7.90668 7.90667 l 9.5,0.71224 9.5,0.71225 V 324.11892 329 h 5.5 5.5 v -4.38235 c 0,-3.78256 0.54983,-4.93219 4.01729,-8.39965 2.20952,-2.20951 4.68452,-4.27333 5.5,-4.58626 C 142.76253,311.15389 143,307.69443 143,290.03138 V 269 l -10.75,-0.002 -10.75,-0.002 0.30559,13.00175 0.3056,13.00175 h 5.4444 H 133 v 11.5 11.5 h -6 -6 v -11.5 -11.5 h -5 -5 v -11.91821 c 0,-6.55502 -0.27314,-12.63002 -0.60699,-13.5 C 109.88947,268.26959 110.63679,268 114.77779,268 h 4.99176 l 0.68718,-5.5 0.68718,-5.5 H 137.07196 153 v -6.63592 -6.63593 l -4.63957,0.63593 c -2.55177,0.34975 -9.75177,0.63592 -16,0.63592 H 121 v 5.5 5.5 h -9.55412 -9.55412 l 0.29426,7.75 c 0.16185,4.2625 0.1862,13.0375 0.0541,19.5 L 102,295 h -5 -5 v -19.43873 -19.43872 l 4.453275,-0.66781 4.453275,-0.66781 0.29672,-5.64347 L 101.5,243.5 111,243 c 6.58774,-0.34672 9.53066,-0.88319 9.6,-1.75 0.055,-0.6875 0.1675,-3.275 0.25,-5.75 L 121,231 h 15.5 15.5 v -5.55019 -5.55018 l -15,0.69849 -15,0.69849 v -5.14831 c 0,-4.17845 -0.32967,-5.17699 -1.75,-5.30061 -0.9625,-0.0838 -2.2,-0.25687 -2.75,-0.38465 -0.55,-0.12779 -2.2375,-0.28425 -3.75,-0.34769 C 111.04388,210.00184 111,209.89628 111,203.5 V 197 h 5.07097 5.07097 l -0.32097,-9.0023 -0.32097,-9.00229 5.22254,0.002 5.22255,0.002 0.27745,-14.25 0.27746,-14.25 5.25,-0.30226 5.25,-0.30226 v -4.94774 -4.94774 h 6.5 6.5 v -6 -6 h 30 30 v 6 6 h 5.43946 5.43946 l 0.31054,11.50196 0.31054,11.50197 -3.25,-0.002 L 220,163 v 12 12 h 5.5 5.5 v 9.09186 9.09186 l -5.15784,-0.34186 -5.15785,-0.34186 0.22494,7.25 0.22494,7.25 H 216.56709 212 v 6 6 h -7 -7 v 6 6 h 5.81381 5.81381 l -0.434,6 -0.434,6 h 5.2167 5.21671 l -0.34652,5.00062 -0.34651,5.00062 5.25,-6.2e-4 L 229,265 v -11.94098 c 0,-6.56754 0.36474,-12.16641 0.81053,-12.44192 0.4458,-0.27552 3.1458,-0.6075 6,-0.73773 L 241,239.64258 V 235.82129 232 h 9.5 9.5 v 5.5 5.5 h 4.5 4.5 v 11.5 11.5 h -4.87863 -4.87863 l 0.47974,6 0.47974,6 H 255.60111 251 l -0.002,5.25 -0.002,5.25 -5.7483,0.0634 -5.7483,0.0634 -0.30043,5.13386 -0.30043,5.13386 -4.69957,0.30273 C 229.53005,299.49806 229.4968,299.52558 229,303.5 l -0.5,4 -12.5,-0.10705 -12.5,-0.10705 v 11.44815 11.44815 l 3.25,-0.52823 3.25,-0.52823 V 337.56287 346 h 4 4 v 6.5 6.5 h 4.06862 4.06862 l -0.31862,9.50224 -0.31862,9.50224 4.5,-0.004 4.5,-0.004 -0.31881,16.00135 -0.31881,16.00136 H 239.43119 245 v 17.44521 17.44521 l 4.72116,0.30479 4.72115,0.30479 -0.29668,4.75 -0.29669,4.75 H 263.42447 273 v 9 9 H 244.5 216 v -15.5 z m 16.25,-26.34813 c 0.4125,-0.0835 0.75,-4.62721 0.75,-10.09708 v -9.94521 l -4.75,-0.30479 -4.75,-0.30479 -0.28383,-10.75 -0.28383,-10.75 -4.21617,-0.006 c -2.31889,-0.003 -7.94357,-0.29615 -12.49928,-0.65077 l -8.2831,-0.64478 0.38982,5.40077 0.38982,5.40077 5.64329,0.2999 L 210,399.0998 v 12.45009 12.4501 h 5.5 5.5 v 3.88279 3.88279 l 5.25,-0.23092 c 2.8875,-0.12701 5.5875,-0.29926 6,-0.38279 z M 131.75,417.00869 143,417 v -4.5 -4.5 h 6 6 v -9 -9 l -11.25,-0.002 -11.25,-0.002 v 4.75162 4.75162 l -18.75,0.27207 -18.75,0.27206 v 4.47794 4.47793 h 7.5 7.5 v 4.63929 4.63929 l 5.25,-0.6306 c 2.8875,-0.34683 10.3125,-0.63451 16.5,-0.63929 z M 228,291.64679 v -4.3532 l 5,0.48043 5,0.48044 V 283.12723 278 h 5.07932 5.07931 l -0.32931,-6.25 -0.32932,-6.25 5.28439,-0.30345 5.2844,-0.30345 -0.2844,-10.19655 L 257.5,244.5 l -7.66175,-0.5 -7.66175,-0.5 -0.57725,3.5 c -0.31748,1.925 -0.58714,5.3 -0.59925,7.5 -0.0121,2.2 -0.30094,5.6875 -0.64185,7.75 -0.61736,3.73503 -0.63927,3.75 -5.48899,3.75 H 230 v 4.5 4.5 h -6 -6 v 3.5 3.5 h -5.5 -5.5 v 7 7 h 10.5 10.5 z m -39.7624,-51.18422 c -0.26679,-1.39559 0.0785,-6.79559 0.76735,-12 L 190.25737,219 H 200.62869 211 v -8.5 -8.5 h 4.03894 4.03893 l -0.17077,-8 -0.17078,-8 h -2.86816 C 213.10516,186 213,185.82231 213,181.15362 c 0,-2.6655 -0.2862,-8.87837 -0.636,-13.80637 l -0.636,-8.95999 -8.364,-0.26187 L 195,157.86353 V 163.93176 170 h -5.5 -5.5 v 6 6 h -7 -7 v 7.5 7.5 h 3.5 3.5 v 11.5 11.5 h -2.79523 c -2.77335,0 -2.79271,0.045 -2.47485,5.75 0.37627,6.75346 1.89055,10.25 4.43906,10.25 1.42593,0 1.83102,0.77434 1.83102,3.5 v 3.5 h 5.36133 c 5.20061,0 5.34679,-0.0761 4.87627,-2.53743 z m 7.15541,-57.04436 c 0.33385,-0.86998 0.60699,-4.24498 0.60699,-7.5 L 196,170 h 4 4 v 7.5 7.5 h -4.60699 c -3.79013,0 -4.49936,-0.28047 -4,-1.58179 z m 234.2477,279.83209 c 0.13443,-9.31433 0.23503,-9.73631 2.25,-9.43744 C 433.99125,454.12442 434,454.01574 434,427.61765 V 401.10958 L 429.25,400.80479 424.5,400.5 424.2001,394.75 423.90019,389 H 411.4501 399 v 6 6 h -6 -6 v 5 5 h -4.5 -4.5 v 4 4 h -7.5 -7.5 v 4.5 4.5 h -9.5 -9.5 l -0.15753,-3.25 c -0.0866,-1.7875 -0.13665,-3.8125 -0.11112,-4.5 0.0307,-0.82671 -1.52445,-1.2508 -4.59246,-1.25235 l -4.63889,-0.002 0.32873,8.0845 0.32872,8.08451 -4.32872,-0.3103 -4.32873,-0.3103 0.0643,6.22815 0.0643,6.22814 h -9.31427 -9.31427 v -29 -29 h 21 21 v -7.5 -7.5 l 3.75,6.9e-4 3.75,6.9e-4 v -17.25069 -17.25069 l 2.75,0.1129 c 2.70014,0.11085 2.75,0.007 2.75,-5.75 v -5.8629 h -8 -8 v -5 -5 h -5 -5 v -12 -12 h -4.5 -4.5 v -17.5 -17.5 l 4.25,10e-4 4.25,10e-4 -0.33525,-5.37549 -0.33525,-5.37549 5.58525,-0.69783 5.58525,-0.69783 v -4.92805 -4.92804 h 11.5 11.5 v -5 -5 h 12.5 12.5 v -2.5 c 0,-2.47861 -0.0758,-2.5 -8.86249,-2.5 -8.85983,0 -8.8624,-7.5e-4 -8.58805,-2.5 0.26517,-2.4157 0.0751,-2.5 -5.63752,-2.5 L 366,217 v -5.5 -5.5 h -7 -7 v -6.5 -6.5 h 7 7 v -9.5 -9.5 h 5 5 v -12 -12 h 5.25129 5.25129 l -0.001,-5.25 -10e-4,-5.25 5.75,-0.2999 5.75,-0.29991 V 133.4501 128 h 29.5 29.5 v 6.1399 6.13991 l 5.3662,-0.55385 5.3662,-0.55384 0.52915,9.16394 c 0.29104,5.04017 0.32469,9.50144 0.0748,9.91394 -0.24991,0.4125 -2.22782,0.75 -4.39536,0.75 L 460,159 v 14 14 h 4.5 4.5 v 9 9 l -5.75,-0.002 -5.75,-0.002 0.32615,8.00235 0.32614,8.00235 -3.82614,-6.2e-4 -3.82615,-6.2e-4 0.34651,5.00062 0.34652,5.00062 H 444.59651 438 v 6 6 h 4.5 4.5 v 5.09255 5.09255 l 5.50136,-0.34255 5.50137,-0.34255 -10e-4,13.75 L 458,280 h 3.96502 3.96501 l 0.28499,-10.25 0.28498,-10.25 5.75,-0.2999 5.75,-0.29991 V 253.9501 249 h 10 10 v 5 5 h 5 5 v 11.5 11.5 h -4.5 -4.5 v 6 6 h -6 -6 v 5 5 h -6 -6 v 4.34803 4.34804 l -10.65556,0.65196 c -5.86056,0.35859 -12.61056,0.65197 -15,0.65197 H 445 v -5.28729 c 0,-5.15731 -0.0738,-5.29291 -3,-5.51589 l -3,-0.22859 V 316.98412 331 h 4 4 v 8.5 8.5 h 4 4 v 12 12 h 4 4 v 5 5 h 5 5 l 10e-4,22.25 0.001,22.25 -5.50137,-0.34255 L 462,425.8149 V 435.90745 446 h 5.5 5.5 v 4 4 h 9 9 v 9.5 9.5 l -30.75,3e-4 -30.75,3.1e-4 z M 460.5,405.50132 c 0,-17.06594 -0.21997,-20.0132 -1.5,-20.09769 -0.825,-0.0545 -2.5125,-0.16754 -3.75,-0.25132 -1.72857,-0.11701 -2.25,-0.76602 -2.25,-2.80053 v -2.64821 l -8.25,0.64222 c -4.5375,0.35322 -10.80551,0.64492 -13.92891,0.64822 l -5.67891,0.006 0.17891,3.49552 0.17891,3.49551 6.25,0.004 6.25,0.004 v 6 6 h 3 c 3.39468,0 3.23911,-0.86944 3.00453,16.7914 l -0.12341,9.29141 8.30944,-0.29141 8.30944,-0.2914 v -19.99868 z m -99,7.74934 V 409.5 h 7.25057 7.25057 l -5.7e-4,-4.75 L 376,400 h 5.5 5.5 v -6 -6 H 373.5 360 v 6.5 6.5 h -7.5 -7.5 v 6.41821 c 0,3.53002 -0.27314,7.13002 -0.60699,8 -0.52533,1.36898 0.58459,1.58188 8.25,1.58245 l 8.85699,6.5e-4 z M 370,311 v -6 h -5 -5 v -5.44098 c 0,-2.99254 0.38658,-5.6799 0.85906,-5.97192 0.47249,-0.29201 2.83499,-0.19589 5.25,0.21361 4.33005,0.73421 4.39787,0.80735 4.89094,5.27464 l 0.5,4.53011 5.25,0.27141 5.25,0.27141 v -16.07414 c 0,-8.84078 -0.1125,-16.41164 -0.25,-16.82414 -0.26781,-0.80343 -19.68862,-0.64471 -20.50088,0.16755 -0.26673,0.26673 -0.7227,5.50053 -1.01325,11.63066 l -0.52829,11.1457 -5.60379,-0.69346 c -3.08208,-0.3814 -5.77148,-0.85522 -5.97644,-1.05294 -0.20496,-0.19771 -0.0481,-5.55428 0.34865,-11.90349 L 349.1973,269 H 353.59865 358 v -5 -5 h 18.5 18.5 v -11.04561 -11.04562 l -12,0.15524 -12,0.15524 v 4.75445 4.75445 l -4.63957,0.63593 C 363.80866,247.71383 358.63366,248 354.86043,248 H 348 v 5.9121 5.9121 l -3.825,0.64623 c -2.10375,0.35543 -4.36467,0.50749 -5.02426,0.3379 -0.88907,-0.22858 -1.25765,3.8948 -1.425,15.94176 l -0.22574,16.25009 5.25,-9e-5 L 348,293 v 12 12 h 11 11 z m 105.19521,-12.75 0.30479,-4.75 5.5,-0.11992 5.5,-0.11993 0.29772,-6.13007 L 487.09543,281 h 4.33566 c 5.13925,0 5.18922,-0.10984 5.47947,-12.04376 L 497.11622,260.5 488.55811,260.82347 480,261.14695 V 271.57347 282 h -5.5 -5.5 v 5.0499 5.04991 L 463.25,291.7999 457.5,291.5 457.19521,286.75 456.89042,282 H 451.44521 446 v 7 7 h 4.5 c 4.47619,0 4.5,0.0185 4.5,3.5 v 3.5 h 9.94521 9.94521 z M 427.62786,230.99994 427.5,218.99988 l 10.34201,6e-5 10.34201,6e-5 -0.34201,-6.25 -0.34201,-6.25 3.25,-0.31336 3.25,-0.31336 v -20.72984 -20.72985 l -3.25,-0.95679 c -2.23791,-0.65884 -3.34951,-1.65747 -3.56955,-3.2068 -0.29355,-2.06694 -0.84274,-2.25 -6.75,-2.25 H 434 v 6.5 6.5 h -4 -4 v 6 6 h -8 -8 v 7.5 7.5 h 3.5 3.5 v 10.5 10.5 l -3.75,-0.002 -3.75,-0.002 0.31958,8.9482 0.31957,8.94819 4.18043,0.3041 c 3.90258,0.28389 4.16129,0.48687 3.89257,3.0541 -0.27906,2.66608 -0.13785,2.75 4.62786,2.75 h 4.9157 l -0.12785,-12.00006 z M 435,179 v -9 l 5.25,-0.002 5.25,-0.002 -0.32097,9.00229 -0.32097,9.0023 H 439.92903 435 v -9 z m 248.25,293.2596 -6.25,-0.35503 -0.0136,-3.20229 C 676.95889,462.26383 676.12157,461 671.88337,461 H 668 V 446.5 432 h -5 -5 v -16 -16 h -5 -5 v -5 -5 h -5 -5 v 5 5 h -5.94774 -5.94774 l -0.30226,5.25 -0.30226,5.25 -5.5,0.29094 -5.5,0.29094 0.34255,5.45906 L 615.1851,422 H 588.09255 561 l 0.002,5.25 0.002,5.25 -6.00182,-0.33882 -6.00182,-0.33882 V 438.91118 446 h -6.5 -6.5 V 416.5 387 h 26.5 c 21.89591,0 26.5,-0.24035 26.5,-1.38337 0,-1.51611 -2.968,-2.58171 -7.25,-2.60298 L 579,383 V 365.5 348 h 4 4 v -8.1135 -8.1135 l 3,0.44031 3,0.4403 V 326.32681 320 h 3.5 c 2.76109,0 3.5,-0.39761 3.5,-1.88337 0,-2.08934 -2.56168,-3.08251 -8,-3.10161 l -3.5,-0.0123 0.33774,-5.41845 0.33774,-5.41844 -5.48531,-0.68535 -5.48532,-0.68534 -0.67122,-5.37226 -0.67122,-5.37226 -4.9312,-0.65414 L 567,290.74234 V 271.97816 C 567,251.26898 566.75917,252 573.58179,252 H 577 v -5.42804 -5.42805 l 5.5,-0.68718 5.5,-0.68718 v -4.26449 -4.2645 l 12.55561,-0.72418 12.55561,-0.72418 -0.30561,-3.1461 c -0.30417,-3.13131 -0.33265,-3.14598 -6.05561,-3.12092 l -5.75,0.0252 v -3.27519 -3.27518 h -5.5 -5.5 v -4.88889 c 0,-3.2692 -0.41412,-4.87351 -1.25,-4.84246 -0.6875,0.0255 -3.1625,-0.0245 -5.5,-0.11112 L 579,207 v -7.5 -7.5 h 6 6 V 179.5 167 h 5.5 5.5 v -8 -8 h 5 5 v -6 -6 h 6.09255 6.09255 l -0.34255,-5.50136 -0.34255,-5.50137 29.75,0.001 29.75,10e-4 v 5.5 5.5 h 5.5 5.5 v 10.40638 c 0,9.91405 -0.0946,10.38164 -2,9.88337 -1.93025,-0.50477 -2,-0.0307 -2,13.59362 V 187 h 5.5 5.5 v 9.09651 9.09652 l -5.05836,-0.34652 -5.05835,-0.34651 0.2156,7.5 c 0.20976,7.29666 0.15034,7.50214 -2.19164,7.57896 -9.4104,0.30865 -8.77342,-0.0881 -9.10499,5.67104 l -0.30226,5.25 -6.25,0.29772 -6.25,0.29771 v 10.83639 10.83638 l 4.25,-0.1341 4.25,-0.1341 0.29044,8.25 0.29044,8.25 H 679.54044 683 v -9.44521 -9.44521 l 4.75,-0.30479 4.75,-0.30479 0.0984,-5.33148 0.0984,-5.33149 9.15188,-0.16851 9.15187,-0.16852 -0.002,5.5 -0.002,5.5 h 4.75162 4.75162 l 0.28368,11.34878 0.28367,11.34879 -5.0343,-0.34879 -5.03429,-0.34878 6.2e-4,6.25 6.2e-4,6.25 h -5 -5 v 5.44774 5.44774 l -5.25,0.30226 -5.25,0.30226 -0.30226,5.25 -0.30226,5.25 h -7.94774 -7.94774 v -5 -5 h -3.65197 -3.65196 l 0.65196,10.65556 c 0.35859,5.86056 0.65197,16.43556 0.65197,23.5 L 668,343 h 3.5 3.5 v 7.75721 7.7572 l 4.5,-0.3579 4.5,-0.3579 v 8.1007 V 374 l 3.75,-1.3e-4 3.75,-1.3e-4 -0.12298,18.50013 L 691.25403,411 H 696.12702 701 v 17 17 h 5.5 5.5 v 4.38889 c 0,2.8692 0.43282,4.37281 1.25,4.34246 0.6875,-0.0255 4.0625,0.0245 7.5,0.11112 L 727,454 v 9.5 9.5 l -18.75,-0.19268 c -10.3125,-0.10597 -21.5625,-0.35245 -25,-0.54772 z M 690,421.58639 v -9.4136 l -5.5,0.47628 -5.5,0.47628 V 396.76141 380.39747 L 668.5,380.15513 658,379.91278 V 389.45639 399 h 6 6 v 16 16 h 10 10 z M 613,405 v -6 h 6.5 6.5 v -4.5 -4.5 l -6.75,-0.15694 c -3.7125,-0.0863 -10.235,-0.19882 -14.49445,-0.25 l -7.74444,-0.0931 -0.006,5.25 -0.006,5.25 H 585.0809 c -6.55502,0 -12.63002,0.27314 -13.5,0.60699 -1.14417,0.43906 -1.58179,1.9607 -1.58179,5.5 v 4.89301 h 21.5 21.5 v -6 z M 614.87002,303.82639 614.5,292.5 l -7,-0.5 c -3.85,-0.275 -9.5875,-0.34753 -12.75,-0.16118 l -5.75,0.33882 v 5.36128 5.36127 l 5.75,0.29991 5.75,0.2999 0.29379,5.5 0.2938,5.5 7.07623,0.32639 7.07623,0.32639 z m 71.97253,-9.8177 c 2.21353,-0.008 2.32368,-0.3117 2,-5.51005 l -0.34255,-5.50137 5.75,10e-4 5.75,0.001 v -6 -6 h 5 5 v -10 -10 h -3.36043 c -1.84823,0 -5.44823,-0.28617 -8,-0.63592 L 694,249.72815 v 10.63593 C 694,270.18217 693.8525,271 692.08179,271 687.70162,271 687,271.98124 687,278.10699 V 284 h -6.5 -6.5 v 5.63929 5.63929 l 5.25,-0.6306 c 2.8875,-0.34683 6.30415,-0.63451 7.59255,-0.63929 z M 588.89905,283.75 c -0.16027,-4.94131 0.13681,-7.28981 0.9329,-7.375 0.64243,-0.0688 2.74305,-0.18125 4.66805,-0.25 1.925,-0.0688 3.44671,-0.4625 3.38158,-0.875 -0.0651,-0.4125 -0.0651,-4.2375 0,-8.5 L 598,259 h 4.375 c 2.40625,0 5.78125,-0.28125 7.5,-0.625 2.63043,-0.52609 3.125,-1.08 3.125,-3.5 0,-2.78333 0.15942,-2.875 5,-2.875 h 5 v -5.5 -5.5 h -17 -17 v 7 7 h -5.5 -5.5 v 18 18 h 5.56709 5.5671 z M 612,276.375 v -5.625 l -3.125,0.625 c -1.71875,0.34375 -4.15032,0.625 -5.40349,0.625 -2.02136,0 -2.31759,0.56432 -2.625,5.00062 l -0.34651,5.00062 5.75,-6.2e-4 L 612,282 Z M 655,232 v -13 h 12 12 v -8 -8 h 5 5 v -7.5 -7.5 h -3 -3 v -13.86916 -13.86916 l -3.75,-0.61983 c -2.0625,-0.34091 -6.675,-0.6254 -10.25,-0.63221 l -6.5,-0.0124 0.34255,5.50137 0.34255,5.50136 H 658.09255 653 v 6 6 h -3.91821 C 642.28784,182 642,182.35457 642,190.72357 c 0,7.49592 0.005,7.5087 2.53151,7.02566 l 2.53151,-0.48393 -0.28151,11.11735 L 646.5,219.5 643.25,219.17463 640,218.84927 v 8.57536 c 0,8.48039 0.0277,8.57537 2.5,8.57537 1.59116,0 2.5,0.56336 2.5,1.54966 0,0.85231 0.68656,2.87731 1.52568,4.5 1.24535,2.40824 2.16405,2.95034 5,2.95034 H 655 Z m 10,-54 v -8 l 5.25,-0.002 5.25,-0.002 -0.32615,8.00235 -0.32614,8.00235 H 669.92385 665 v -8 z M 859,460.5 V 448 h 4 4 V 434.5 421 l 5.25,-0.0153 c 3.2146,-0.009 4.73744,-0.3403 3.92794,-0.85355 -0.98551,-0.62486 -1.24007,-3.29442 -1,-10.48693 L 875.5,399.99553 h -5.5 -5.5 l 0.31862,9.50224 0.31862,9.50224 h -4.56862 C 856.36209,419 856,419.19814 856,421.5 c 0,2.36364 -0.3,2.5 -5.5,2.5 H 845 v 4.5 4.5 H 827.5 810 v 4.93873 4.93872 l -4.40124,0.66001 c -2.42068,0.363 -5.34568,0.36025 -6.5,-0.006 C 797.07241,442.88821 797,443.17807 797,451.93261 V 461 h 3.5 3.5 v 5.5 5.5 H 790 776 V 451.5 431 l 3.75,-0.002 3.75,-0.002 v -16.24798 -16.24797 h 19.24887 19.24887 l 10e-4,-3.75 10e-4,-3.75 h -7.5 -7.5 v -16.5 -16.5 h 3.36038 3.36039 l 0.0824,-14.75 0.0824,-14.75 4.05718,-0.3075 4.05718,-0.3075 v -7.9425 -7.9425 h -5.44774 -5.44774 l -0.30226,-5.25 -0.30226,-5.25 -5.75,-0.2999 -5.75,-0.29991 v -5.45009 -5.4501 h -3.91821 C 787.86074,290 788,290.28724 788,275.39301 V 262 h 5.5725 5.5725 l -0.26962,-5.75 -0.26961,-5.75 6.69711,-0.29569 L 812,249.90862 V 244.95431 240 l 4.25,-0.11848 c 2.3375,-0.0652 4.8125,-0.0454 5.5,0.0438 0.84042,0.10914 1.25,-1.32654 1.25,-4.38151 V 231 h 10 10 v -4 -4 h -7.63167 -7.63167 l 0.53651,-4 0.53652,-4 H 822.40484 816 l 1.4e-4,-4.75 1.4e-4,-4.75 -5.50014,0.0881 L 805,205.6762 v -8.33811 -8.33811 h 6.5 6.5 v -11.5 -11.5 l 5.25,0.002 5.25,0.002 v -7.71476 -7.71475 l 4.75,0.28862 4.75,0.28862 v -6.07553 -6.07553 h 6 6 v -5.5 -5.5 h 29 29 l 0.15,4 c 0.0825,2.2 0.195,4.5625 0.25,5.25 0.061,0.76279 2.18593,1.44488 5.4517,1.75 l 5.35169,0.5 0.35504,10.25 0.35505,10.25 H 917.45674 915 v 13.57553 13.57553 l 4.75,-0.2921 4.75,-0.2921 v 8.96657 8.96657 l -4.37611,0.0791 -4.37612,0.0791 -0.12388,7.42092 L 915.5,219.5 h -4 -4 l -0.5,5.5 -0.5,5.5 -6.25,-0.31039 -6.25,-0.31039 V 240.43961 251 h 4.5 4.5 v 8.5 8.5 h 3.5 3.5 V 257.5 247 h 4.5 4.5 v -5 -5 h 9 9 v 5 5 h 5.53383 5.53383 l -0.28383,10.67554 -0.28383,10.67555 -4.5,0.0745 -4.5,0.0745 -0.30314,5.85858 -0.30315,5.85859 -5.44685,-0.68054 L 927,278.85618 v 7.07195 7.07196 h -5 c -2.75,0 -5.3375,-0.011 -5.75,-0.0245 -0.4125,-0.0135 -0.975,2.124 -1.25,4.75 -0.49536,4.73025 -0.53622,4.7775 -4.40468,5.09413 -6.95385,0.56915 -8.44177,-0.28999 -8.78805,-5.07427 -0.30572,-4.22387 -0.32874,-4.24687 -4.55727,-4.55282 l -4.25,-0.3075 v 24.5575 24.5575 h 4 4 v 14.9425 14.9425 l 4.25,0.3075 c 4.71578,0.3412 4.46005,-0.2402 4.6437,10.5575 L 910,389 l 4.75,-10e-4 4.75,-0.001 v 10.25132 10.25131 l -5,0.5 -5,0.5 -0.15105,11.5 -0.15106,11.5 -4.59894,0.30479 L 900,434.11021 v 5.52168 5.52168 l -4.25,-0.31143 -4.25,-0.31142 -0.30479,4.73495 -0.30479,4.73496 H 897.94521 905 v 3.5 3.5 h 6 6 v 6 6 h -29 -29 v -12.5 z m 31.31777,-33 -0.60698,-6.5 h 4.91979 4.91979 l -0.0252,-5.73725 c -0.0193,-4.39628 0.32542,-5.76307 1.47482,-5.84769 0.825,-0.0607 2.9625,-0.17897 4.75,-0.26275 L 909,409 v -10 -10 l -3.75,-0.17828 c -2.0625,-0.0981 -4.5375,-0.17483 -5.5,-0.1706 -1.38988,0.006 -1.75,-0.8559 -1.75,-4.18893 v -4.19661 l -14.99856,0.11721 -14.99855,0.11721 -10e-4,4.25 -10e-4,4.25 h 5.57414 5.57414 l -0.28363,5.25 -0.28362,5.25 4.20948,0.3075 4.20949,0.3075 V 410.0575 420 h -4.54409 -4.54408 l 0.29408,6.99276 0.29409,6.99276 6.21237,0.007 6.21238,0.007 -0.60698,-6.5 z M 843.7999,416.75 844.09981,411 H 849.0499 854 v -11 -11 h -7.36043 c -4.04823,0 -9.4745,0.28977 -12.05837,0.64392 l -4.69794,0.64393 0.12664,8.10607 c 0.22581,14.45334 0.78595,13.15546 -5.50854,12.76353 L 819,410.8149 v 6.12333 6.12333 L 831.25,422.78078 843.5,422.5 Z M 847,303 v -13 h -12.60504 -12.60503 l 0.38146,-4 0.38146,-4 h -5.88341 c -4.95406,0 -5.78754,-0.24986 -5.27643,-1.58179 C 811.72686,279.54823 812,276.79472 812,274.29929 v -4.53713 l 9.5,0.71225 9.5,0.71224 V 264.59332 258 h 6.5 6.5 v -8.5 -8.5 h -10 -10 v 3.91821 C 824,251.47975 823.4779,252 816.89301,252 H 811 v 4.9501 4.95009 l -5.75,0.29991 -5.75,0.2999 v 13 13 l 6.33965,0.30004 6.33965,0.30005 -0.33965,5.45132 -0.33965,5.45132 9.25,0.12363 c 5.0875,0.068 9.77245,0.17989 10.411,0.24864 0.79254,0.0853 1.08918,2.58452 0.9347,7.875 L 831.86941,316 H 839.4347 847 Z m 62.50691,-11 h 4.34333 l -0.17738,-5.95871 -0.17739,-5.95872 6.00227,-0.29128 L 925.5,279.5 l 0.30051,-5.19949 0.30051,-5.19949 5.19949,-0.30051 L 936.5,268.5 l 0.28621,-9.75 0.28621,-9.75 H 930.618 c -3.54993,0 -7.16623,-0.27314 -8.03621,-0.60699 -1.38112,-0.52998 -1.58179,0.73866 -1.58179,10 V 269 h -4.31777 -4.31777 l -0.044,5.25 -0.044,5.25 -5.13823,-0.0427 -5.13822,-0.0427 v 6.89968 c 0,5.88077 0.23359,6.81005 1.58179,6.2927 C 904.45177,292.27314 907.11807,292 909.50691,292 Z M 884,230.5 V 219 h 10 10 v -8.5 -8.5 l 4.75,0.002 4.75,0.002 -0.33206,-7.00226 c -0.30418,-6.41444 -0.51405,-7.00221 -2.5,-7.00183 -2.13247,4.1e-4 -2.1639,-0.22861 -1.92078,-14 L 908.99432,160 H 897.02991 885.0655 L 884.78275,171.25 884.5,182.5 873.25,182.4643 862,182.4286 v 7.78566 7.78566 h 5.03383 5.03383 l -0.28383,10.75 -0.28383,10.75 -5.25,-0.34192 -5.25,-0.34193 v 7.19696 7.19696 l 3.97955,-0.37951 C 869.40219,232.40879 870,233.09362 870,238.58179 V 242 h 7 7 z m 9,-52.5 v -8 h 4.5 4.5 v 8 8 h -4.5 -4.5 z m 116.6667,294.33333 C 1009.3,471.96667 1009,470.84846 1009,469.84844 1009,467.44405 998.30506,456.11467 995.33057,455.36812 993.26588,454.84991 993,454.19356 993,449.61477 c 0,-5.07076 0.13226,-5.29965 7,-12.11477 l 7,-6.94636 V 424.27682 418 h 5.5925 5.5926 l -0.3426,-5.45038 c -0.3817,-6.07478 0.1079,-6.50924 7.3654,-6.53597 l 3.708,-0.0136 0.292,-7.75 0.2921,-7.75 4,-0.29431 4,-0.29432 -0.2886,-20.95568 -0.2886,-20.95569 h 3.5386 3.5386 v -10.5 -10.5 h -6.3772 -6.3771 l 0.5072,-4.5 0.5072,-4.5 h -4.43 -4.4299 l -1.2001,-5.8102 C 1021.54,308.9942 1021,304.2692 1021,301.6898 V 297 h -5.0231 -5.023 l 0.273,-17.75 0.2731,-17.75 5.25,-0.30226 5.25,-0.30226 V 254.94774 249 h 5.5 5.5 v -5.5 -5.5 h 6 6 v -5 -5 h 15 15 v -3 c 0,-3.41029 -0.3441,-3.4706 -12.25,-2.14675 l -6.75,0.75056 v -3.94181 -3.94181 l -5.5,0.56765 -5.5,0.56765 V 211.42775 206 h -7 -7 v -12 -12 h 6.5 6.5 v -9.5 -9.5 h 4.5 4.5 v -5.86916 -5.86916 l 3.75,-0.61983 c 2.0625,-0.34091 4.9875,-0.62479 6.5,-0.63084 2.6653,-0.0107 2.75,-0.18034 2.75,-5.51101 V 139 h 5.5 5.5 v -5.5 -5.5 h 28.5 28.5 v 6 6 h 6 6 v 9.5 c 0,9.46667 -0.01,9.5 -2.5,9.5 h -2.5 v 14 14 h 5.5 5.5 v 9 9 h -5.5 -5.5 v 8 8 h -4 -4 v 5 5 h -6 -6 v 5 5 h 4 4 v 5 5 h 4 4 v 14.5 14.5 h 5 5 v -7 -7 h 5 5 v -5 -5 h 10.5 10.5 v 5 5 h 5.5 5.5 v 10.5 10.5 h -5.5 -5.5 v 6 6 h -7.5 -7.5 v 5.5 5.5 h -8 -8 v 5.6446 5.64461 l -6.75,-0.6375 c -3.7125,-0.35062 -8.2125,-0.64069 -10,-0.6446 L 1127,320 v -6 c 0,-5.73333 -0.1111,-6 -2.5,-6 h -2.5 v 15.5 15.5 l 4.75,-10e-4 4.75,-0.001 -0.3425,5.50137 -0.3426,5.50136 h 4.5926 4.5925 v 5.5 5.5 h 4.5 4.5 v 6.46556 6.46555 l 5,0.66328 5,0.66327 v 14.87117 14.87117 h -5.5 -5.5 v 6 6 h -5 -5 v -4.91821 c 0,-2.70502 -0.2731,-5.63002 -0.607,-6.5 -0.5047,-1.31514 0.2539,-1.58179 4.5,-1.58179 H 1147 v -13.125 -13.125 l -3.125,0.625 c -1.7187,0.34375 -9.1437,0.625 -16.5,0.625 H 1114 v 4.26488 4.26488 l 5.75,0.0913 5.75,0.0913 0.2984,5.59245 0.2983,5.59246 -5.7983,0.30134 -5.7984,0.30135 -0.2949,9.25 -0.2948,9.25 h 11.9483 11.9484 l 0.3465,5.00062 0.3465,5.00062 -6.75,-6.2e-4 L 1125,428 v 7.36043 c 0,4.04823 0.2862,9.44823 0.6359,12 0.6292,4.59011 0.6763,4.63957 4.4204,4.63957 h 3.7845 l 0.6655,6.25 c 0.366,3.4375 0.5143,7.77953 0.3296,9.64895 l -0.3359,3.39896 -9.5,-0.19292 c -7.6375,-0.1551 -9.75,-0.52738 -10.7754,-1.89895 -0.7015,-0.93832 -3.8515,-4.7154 -7,-8.39351 -5.128,-5.99049 -6.1154,-6.69398 -9.4746,-6.75 -3.6979,-0.0617 -3.75,-0.11809 -3.75,-4.06253 v -4 h -4.5 -4.5 v -7.5 -7.5 h 4.5 4.5 v -6.60504 -6.60503 l 3.9675,0.37836 3.9675,0.37837 0.2825,-9.91321 0.2825,-9.9132 5,-0.11013 5,-0.11012 0.2951,-5 0.2952,-5 -14.6508,0.30256 -14.6508,0.30256 0.6478,4.31979 c 0.5879,3.92036 0.4358,4.37657 -1.6444,4.93379 -1.2606,0.33769 -3.7546,0.62014 -5.5421,0.62765 -3.2315,0.0136 -3.25,0.0421 -3.25,5.01365 v 5 h -5.5 -5.5 v 5 5 h -5.4503 -5.4504 l -0.6788,6 -0.6788,6 H 1046.3708 1042 v 6 6 h -4.5 -4.5 v 5.38889 c 0,3.6692 0.3989,5.37407 1.25,5.34246 0.6875,-0.0255 2.9375,0.0245 5,0.11112 3.589,0.15077 3.75,0.30776 3.75,3.65753 0,3.41667 0.095,3.5 4,3.5 h 4 v 6 6 h -20.3333 c -11.1834,0 -20.6334,-0.3 -21,-0.66667 z m 31.8665,-45.65835 c 0.3511,-1.87201 0.4874,-4.47721 0.3026,-5.78932 -0.3071,-2.18152 0.056,-2.41114 4.2425,-2.68344 l 4.5782,-0.29777 -0.4309,-4.95223 L 1049.7947,408 h 6.1782 6.1782 l -0.2886,-4.75 -0.2885,-4.75 5.463,-0.0911 5.463,-0.0911 0.2953,-4.9089 0.2952,-4.9089 -13.5452,0.30412 -13.5453,0.30411 v 4.44589 c 0,4.2732 -0.1165,4.44588 -3,4.44588 -2.8889,0 -3,0.16667 -3,4.5 v 4.5 h -5.4165 -5.4164 l 0.088,5.75 0.088,5.75 -3.6719,0.31037 -3.6719,0.31036 v 5.31927 5.31927 l 9.4473,0.15969 9.4473,0.15968 0.6386,-3.40366 z M 1056,307.5 V 298 h -11.5 -11.5 v 9.5 9.5 h 11.5 11.5 z m 91.1977,-4.75 0.3023,-5.25 5.5,-0.12027 c 9.6109,-0.21015 9,0.15499 9,-5.37973 v -5 h 7.5 7.5 v -10 -10 h -9 -9 v 7 7 h -5.8294 c -4.8881,0 -5.8282,0.28259 -5.8217,1.75 0,0.9625 -0.072,3.325 -0.17,5.25 l -0.1777,3.5 -5.0006,-0.34651 L 1137,290.80697 V 285.90349 281 h -4 -4 v 12.93963 12.93964 l 3.75,0.39226 c 2.0625,0.21575 6.089,0.46791 8.9477,0.56037 L 1146.8955,308 Z M 1033,278.94521 v -17.05479 l -4.75,0.30479 -4.75,0.30479 -0.5,16.75167 -0.5,16.75167 5.25,-0.002 5.25,-0.002 v -17.05479 z m -8.7478,2.55479 c 0.011,-2.2 0.2159,-2.98225 0.4551,-1.73834 0.2392,1.24391 0.2301,3.04391 -0.02,4 -0.2503,0.95609 -0.446,-0.0617 -0.4349,-2.26166 z M 1065,284 v -12 h -10.5 -10.5 v 6.57932 6.57931 l 6.25,-0.32931 6.25,-0.32932 v 5.74967 5.74968 l 4.25,3.2e-4 L 1065,296 Z m 0,-28 v -5 h 6.5 6.5 v -6.05687 -6.05688 l -16.25,0.30688 -16.25,0.30687 -0.3023,5.25 -0.3022,5.25 h -3.866 c -6.3042,0 -7.0295,0.63014 -7.0295,6.10699 V 261 h 15.5 15.5 z m 46,-26.079 V 219 l 10.25,0.002 10.25,0.002 -0.3261,-8.00235 -0.3262,-8.00235 h 4.0762 4.0761 v -8.07157 -8.07156 l -2.75,0.32156 -2.75,0.32157 v -14.25089 -14.2509 l -9.25,9e-4 -9.25,8.9e-4 v 6 6 h -5 -5 l -0.1711,3.75 c -0.094,2.0625 -0.2165,4.65 -0.2721,5.75 -0.089,1.75284 -0.8385,2.0128 -6.0673,2.10357 l -5.966,0.10357 -0.012,6.6459 -0.012,6.6459 3.1704,5.3e-4 3.1705,5.3e-4 -0.1088,11.5 -0.1088,11.5 h -3.3117 -3.3116 v 7 c 0,6.33333 0.1905,7 2,7 1.6866,0 1.9996,0.66589 1.9977,4.25 v 4.25 l 7.5024,-0.329 7.5023,-0.32901 V 229.9203 Z M 1118,178 v -8 h 5 5 v 8 8 h -5 -5 z m 264,284.02746 V 451 h -3.5 -3.5 V 438.5 426 h -4.5 -4.5 v -12.43963 -12.43964 l -3.75,-0.31036 c -2.0625,-0.17071 -3.6375,-0.64787 -3.5,-1.06037 0.1375,-0.4125 0.25,-3.25351 0.25,-6.31336 v -5.56336 l 3.25,0.31336 c 3.2131,0.3098 3.2534,0.37861 3.5499,6.06336 l 0.2999,5.75 h 4.9501 4.9501 l 0.01,5.75 c 0,3.1625 0.294,8.7875 0.6446,12.5 l 0.6375,6.75 h 4.3554 4.3554 v 4.05479 4.05479 l 4.75,-0.30479 4.75,-0.30479 0.2754,-15.75 0.2754,-15.75 h -5.5254 -5.5254 V 387.25 373.5 l -5.2702,0.32915 -5.2703,0.32915 0.374,3.92085 0.3739,3.92085 h -9.6051 -9.605 v 3.97523 3.97523 l -16.2175,0.27477 -16.2175,0.27477 0.293,4.75 0.2931,4.75 h -5.5756 -5.5755 v 5.5 5.5 h -4.5741 -4.5742 l 0.2718,5.25 0.2719,5.25 -4.9477,-0.0407 c -2.7212,-0.0224 -14.7352,-0.40103 -26.6977,-0.8414 l -21.75,-0.80066 v 3.09139 3.0914 h -6.5 -6.5 v 8.5 8.5 h -6.5 -6.5 v -30.1446 -30.14461 l 6.75,0.6375 c 3.7125,0.35062 8.49,0.64069 10.6166,0.6446 3.3728,0.006 3.7999,0.26255 3.3437,2.00711 -0.5089,1.94591 -0.031,2 17.6798,2 h 18.2028 l -0.046,-2.73051 c -0.044,-2.58785 -0.2685,-2.71446 -4.2965,-2.42353 l -4.25,0.30698 v -10.3529 -10.35289 l 4,0.38146 4,0.38146 v -16.10503 -16.10504 h 4.1308 4.1309 l -0.6199,-3.75 c -0.3409,-2.0625 -0.6247,-4.7625 -0.6308,-6 -0.01,-2.09883 -0.4429,-2.25 -6.4387,-2.25 h -6.4278 l 0.5677,-5.5 0.5676,-5.5 h -6.004 -6.004 l -0.6359,-4.63957 c -0.3497,-2.55177 -0.6359,-7.05177 -0.6359,-10 v -5.36043 h -4.5 -4.5 v -16.5 -16.5 h 3.8708 3.8709 l 0.6737,-5.95539 0.6738,-5.95539 5.9554,-0.67378 5.9554,-0.67377 v -5.25761 -5.25761 l 15,-0.72645 15,-0.72645 v -3.38677 -3.38678 h -10 -10 v -2.5 c 0,-1.375 -0.3375,-2.44671 -0.75,-2.38158 -0.4125,0.0651 -3.1125,0.0651 -6,0 L 1273,218 v -5.5 -5.5 h -6.5 -6.5 v -7 -7 h 6 6 V 177.5 162 h 4.5 4.5 v -5.5 -5.5 h 5.5 5.5 l 0.125,-4.5 c 0.069,-2.475 0.1813,-5.0625 0.25,-5.75 0.08,-0.80129 2.189,-1.35765 5.875,-1.5499 l 5.75,-0.29991 V 133.4501 128 h 34 34 v 6.0725 6.0725 l 5.75,-0.26635 5.75,-0.26635 v 9.94031 9.94032 l -3.75,-0.32308 -3.75,-0.32309 V 172.92338 187 h 6.0389 6.039 l -0.289,8.75 -0.2889,8.75 -5.75,0.2999 -5.75,0.29991 v 7.55079 7.55079 l -4.5,-0.3579 -4.5,-0.3579 v 5.7572 V 231 h -5.5 -5.5 v 6.07157 c 0,5.97392 0.042,6.06639 2.6349,5.75 2.5255,-0.30822 2.6397,-0.11401 2.75,4.67843 l 0.1151,5 4.5,0.0727 4.5,0.0727 0.2987,6.21699 0.2988,6.21698 8.2012,-0.28966 8.2013,-0.28965 0.2831,-10.08189 0.2832,-10.0819 5.183,0.0758 5.1831,0.0758 -0.2917,-4.74387 -0.2918,-4.74386 h 10.4025 10.4024 l -0.254,4.5 -0.254,4.5 h 5.5294 5.5294 l -0.4026,11.25 -0.4026,11.25 -5.1997,0.30226 -5.1997,0.30226 v 4.94774 4.94774 h -5 -5 v 6.5 6.5 h -6.5 -6.5 v 5.5 5.5 h -5 -5 v 5 5 h -12 -12 v 9 9 h 3 3 v 7.5 7.5 h 4.5 4.5 v 9 9 h 3.9477 3.9478 l 0.3022,5.25 0.3023,5.25 5.25,0.89064 5.25,0.89065 v 12.93488 12.93489 l 4.75,-0.29296 4.75,-0.29297 0.2738,17.25829 0.2738,17.25828 3.4762,-0.65214 3.4762,-0.65214 v 5.4828 5.4828 l 12,0.71622 12,0.71622 v 7.41227 7.41227 h -5.5879 -5.5879 l 0.6758,4 0.6758,4 h -7.9173 c -7.5674,0 -7.9138,0.0994 -7.8379,2.25 0.078,2.21934 -0.1148,2.25378 -14.1706,2.52746 L 1382,473.05505 V 462.0276 Z M 1303,404.5 V 399 h 4.5 4.5 v -4 -4 l -6.25,-0.006 c -3.4375,-0.003 -9.9625,-0.295 -14.5,-0.64822 l -8.25,-0.64222 v 5.14821 5.14822 h -10.5 c -9.6,0 -10.5,0.16071 -10.5,1.875 0,1.03125 -0.2812,3.28125 -0.625,5 l -0.625,3.125 h 21.125 21.125 v -5.5 z m 3,-96.89301 C 1306,296.64734 1306.3552,297 1295.3175,297 h -7.5189 l 0.3579,-4.5 0.3579,-4.5 h -6.8738 c -6.6404,0 -6.8534,-0.0764 -6.2709,-2.25 0.3317,-1.2375 0.6091,-6.1875 0.6166,-11 L 1276,266 h 6.5 6.5 v -5 -5 h 8 8 v -6 -6 h -14.5 -14.5 v 6.12019 6.12019 l -6,-0.434 -6,-0.434 v 15.76155 15.76155 l 5.25,0.30226 5.25,0.30226 0.2872,9.83368 0.2872,9.83368 6.4649,-0.33368 6.4649,-0.33368 v 5.25 5.25 h 9 9 v -9.39301 z M 1383,294 v -6 h 5.5 5.5 v -5.5 -5.5 h 6.5925 6.5926 l -0.3426,-5.50136 -0.3425,-5.50137 5.1054,10e-4 5.1054,0.001 0.6375,-6.75 c 0.3506,-3.7125 0.6407,-8.2125 0.6446,-10 l 0.01,-3.25 h -9 -9 v 10.5 10.5 h -4.5 -4.5 v 5 5 h -9.5 -9.5 v 5.5 5.5 h -6.5 -6.5 v 6 6 h 12 12 v -6 z m -85,-16.39496 v -9.39497 l -4,-0.38146 -4,-0.38146 -0.01,4.52642 c 0,2.48954 -0.2925,6.88893 -0.6393,9.77643 l -0.6306,5.25 h 4.6393 4.6393 v -9.39496 z M 1343.3483,236.25 c 0.3506,-3.7125 0.6407,-8.8875 0.6446,-11.5 l 0.01,-4.75 h 10.5 10.5 l -6e-4,-8.75 -6e-4,-8.75 4.9184,0.34097 4.9184,0.34097 0.3322,-7.5479 0.3322,-7.5479 -3.5,-0.29307 -3.5,-0.29307 0.065,-14.25 0.065,-14.25 h -9.4042 -9.4042 l 0.3388,6.00182 0.3388,6.00182 -3.25,0.12318 c -1.7875,0.0677 -3.8125,0.17943 -4.5,0.24818 -0.811,0.0811 -1.3515,2.2322 -1.5389,6.125 l -0.2889,6 -6.9611,-0.33206 -6.9611,-0.33206 V 189.91794 197 h 4 4 v 11.5 11.5 h -5 -5 v 7 c 0,6.8 0.071,7 2.5,7 2.2963,0 2.5,0.36667 2.5,4.5 v 4.5 h 6.3554 6.3554 l 0.6375,-6.75 z M 1352,178.00627 c 0,-7.74739 0.069,-7.9808 2.25,-7.57431 1.2375,0.23068 3.6,0.45181 5.25,0.4914 l 3,0.072 -0.329,7.50233 -0.329,7.50233 h -4.921 -4.921 v -7.99373 z"
       id="path35658"
       transform="matrix(0.26458333,0,0,0.26458333,161.97542,528.10822)"
       clip-path="url(#clipPath35714)" /></g></svg>
