<?xml version="1.0" encoding="UTF-8" standalone="no"?>
<!-- Created with Inkscape (http://www.inkscape.org/) -->

<svg
   width="49.712723mm"
   height="76.067711mm"
   viewBox="0 0 49.712723 76.067711"
   version="1.1"
   id="svg34011"
   xml:space="preserve"
   xmlns="http://www.w3.org/2000/svg"
   xmlns:svg="http://www.w3.org/2000/svg"><defs
     id="defs34008" /><g
     id="layer1"
     transform="translate(-297.45935,-636.21881)"><rect
       style="fill:#f7f7f7;fill-opacity:1;paint-order:fill markers stroke"
       id="rect14684"
       width="182.32787"
       height="279.38092"
       x="4.2401829"
       y="3.7690513"
       transform="matrix(0.26458333,0,0,0.26458333,296.93018,636.21881)" /><path
       id="path34156"
       style="fill:#424243;fill-opacity:1"
       d="m 1149,639.00001 v 143.75 143.75 l 114.25,-0.16601 60.9824,-0.0879 V 926.5 h 12.6582 V 639 h -0.8144 -11.8438 -60.7285 z m 14,13 h 19.5 19.5 v 17 17 h -19.5 -19.5 v -17 z m 51,0 h 35.5 35.5 v 17 17 h -35.5 -35.5 v -17 z m 83.5,0 h 26.7324 v 34 H 1297.5 v -17 z m -134.5,45.97656 38.25,0.26172 38.25,0.26172 0.2754,16.25 0.2734,16.25 H 1201.5254 1163 v -16.51172 z m 90,0.0234 h 35.5 35.5 v 16.5 16.5 h -35.5 -35.5 v -16.5 z m -90,46 h 19.5 19.5 v 16.5 16.5 h -19.5 -19.5 v -16.5 z m 51,0 h 35.5 35.5 v 16.5 16.5 h -35.5 -35.5 v -16.5 z m 110.2324,0.28906 v 32.71094 H 1297.5 l 0.1973,-16.25 0.1992,-16.25 z M 1163,790.00001 h 38.5 38.5 v 16 16 h -38.5 -38.5 v -16 z m 90,0 h 35.5 35.5 v 16 16 h -35.5 -35.5 v -16 z m -90,45 h 19.5 19.5 v 16.5 16.5 h -19.5 -19.5 v -16.5 z m 51,0 h 35.5 35.5 v 16.5 16.5 h -35.5 -35.5 v -16.5 z m 83.5,0 h 26.7324 V 867.9961 L 1297.5,867.9921 V 851.496 Z m -134.5,46 h 38.5254 38.5234 l -0.2734,16.25 -0.2754,16.25 -38.25,0.26172 -38.25,0.26172 v -16.51172 z m 90,0 h 35.5 35.5 v 16.5 16.5 h -35.5 -35.5 v -16.5 z"
       transform="matrix(0.26458333,0,0,0.26458333,-6.5468934,467.15006)" /></g></svg>
