<?xml version="1.0" encoding="UTF-8" standalone="no"?>
<!-- Created with Inkscape (http://www.inkscape.org/) -->

<svg
   width="95.911453mm"
   height="28.697479mm"
   viewBox="0 0 95.911453 28.697479"
   version="1.1"
   id="svg5"
   xml:space="preserve"
   inkscape:version="1.2.1 (9c6d41e410, 2022-07-14)"
   sodipodi:docname="DON'T.svg"
   xmlns:inkscape="http://www.inkscape.org/namespaces/inkscape"
   xmlns:sodipodi="http://sodipodi.sourceforge.net/DTD/sodipodi-0.dtd"
   xmlns="http://www.w3.org/2000/svg"
   xmlns:svg="http://www.w3.org/2000/svg"><sodipodi:namedview
     id="namedview7"
     pagecolor="#ffffff"
     bordercolor="#666666"
     borderopacity="1.0"
     inkscape:showpageshadow="2"
     inkscape:pageopacity="0.0"
     inkscape:pagecheckerboard="0"
     inkscape:deskcolor="#d1d1d1"
     inkscape:document-units="mm"
     showgrid="false"
     inkscape:zoom="1.5376122"
     inkscape:cx="195.10771"
     inkscape:cy="492.32179"
     inkscape:window-width="1920"
     inkscape:window-height="1017"
     inkscape:window-x="-8"
     inkscape:window-y="-8"
     inkscape:window-maximized="1"
     inkscape:current-layer="layer1" /><defs
     id="defs2" /><g
     inkscape:label="Layer 1"
     inkscape:groupmode="layer"
     id="layer1"
     transform="translate(-14.812016,-108.64247)"><path
       id="path948"
       style="font-size:144px;line-height:1.25;font-family:'Upheaval TT (BRK)';-inkscape-font-specification:'Upheaval TT (BRK)';letter-spacing:0px;word-spacing:0px;fill:#f7f7f7;fill-opacity:1;stroke:#2e2e2e;stroke-width:2.5;stroke-dasharray:none;stroke-opacity:1"
       d="m -215.91837,415.76935 v 72 h 64.79883 v -7.19922 h 7.20117 v -7.20117 h 7.19922 v -43.19922 h -7.19922 v -7.20117 h -7.20117 v -7.19922 h -14.40039 -7.19922 z m 93.59961,0 v 7.19922 h -7.20117 v 57.60156 h 7.20117 v 7.19922 h 64.798827 v -7.19922 h 7.201172 v -57.60156 h -7.201172 v -7.19922 z m 79.199218,0 v 72 h 28.800781 v -36 h 7.1992191 v 7.19922 h 7.20117197 v 7.20117 H 7.2808489 v 21.59961 H 36.081631 v -72 H 7.2808489 v 21.59961 H 0.08163007 v -7.19922 H -7.1195419 v -7.20117 h -7.1992191 v -7.19922 z m 86.400391,0 v 14.40039 h 21.59961 v -14.40039 z m 28.800782,0 v 14.40039 h 21.59961 v 57.59961 h 28.800779 v -57.59961 h 21.59961 v -14.40039 z m -259.201171,14.40039 h 14.40039 v 7.19922 h 7.19922 v 28.80078 h -7.19922 v 7.19922 h -14.40039 z m 86.40039,0 h 21.599607 v 14.40039 14.39844 14.40039 h -21.599607 z m -115.19922,63.59961 v 27.96289 h 11.18554 v -11.18555 h 8.38868 v 11.18555 h 11.18554 v -27.96289 h -11.18554 v 11.18555 h -8.38868 v -11.18555 z m 33.55469,0 v 5.59179 h 8.39062 v 16.7793 h -8.39062 v 5.5918 h 27.96484 v -5.5918 h -8.38867 v -16.7793 h 8.38867 v -5.59179 z m 30.76171,0 v 5.59179 h 8.38868 v 22.3711 h 11.18554 v -22.3711 h 8.38868 v -5.59179 z m 45.33399,0 v 5.59179 h 8.388671 v 22.3711 h 11.185547 v -22.3711 h 8.388672 v -5.59179 z m 30.759765,0 v 27.96289 h 11.185547 v -11.18555 h 8.388672 v 11.18555 h 11.185547 v -27.96289 h -11.185547 v 11.18555 h -8.388672 v -11.18555 z m 36.353516,0 v 2.79687 h -2.796875 v 22.3711 h 2.796875 v 2.79492 h 27.962891 v -5.5918 h -19.574219 v -5.59375 h 8.388672 v -5.59179 h -8.388672 v -5.59376 h 19.574219 v -5.59179 z m 45.3339854,0 v 27.96289 H 17.364833 v -2.79492 h 2.796875 v -2.79688 h 2.794922 v -2.79687 h 2.796875 v 2.79687 h 2.796875 v 2.79688 h 2.796875 v 2.79492 H 42.532802 V 493.76935 H 31.347255 v 13.98242 H 28.55038 v -2.79687 h -2.796875 v -2.79688 H 22.95663 v 2.79688 h -2.794922 v 2.79687 h -2.796875 v -13.98242 z m 41.9453126,0 v 2.79687 h -2.796875 v 25.16602 h 11.185547 v -11.18555 h 8.388672 v 11.18555 H 76.08749 v -25.16602 h -2.794922 v -2.79687 h -8.390625 z m 30.759766,0 v 27.96289 h 30.759765 v -5.5918 H 90.069912 v -22.37109 z m 33.556645,0 v 27.96289 h 30.75976 v -5.5918 h -19.57422 v -22.37109 z m -55.927739,5.59179 h 8.388672 v 5.59376 h -8.388672 z"
       transform="matrix(0.26458333,0,0,0.26458333,72.271147,-1.032445)"
       inkscape:export-filename="Title.svg"
       inkscape:export-xdpi="113.29221"
       inkscape:export-ydpi="113.29221" /><path
       id="path4265"
       style="font-size:144px;line-height:1.25;font-family:'Upheaval TT (BRK)';-inkscape-font-specification:'Upheaval TT (BRK)';letter-spacing:0px;word-spacing:0px;fill:#2e2e2e;fill-opacity:1"
       sodipodi:type="inkscape:offset"
       inkscape:radius="-0.68980867"
       inkscape:original="M -214.27148 415.76953 L -214.27148 426.78906 L -215.91797 426.78906 L -215.91797 428.83594 L -214.27148 428.83594 L -214.27148 428.91406 L -212.27344 428.91406 L -212.27344 428.83594 L -182.73242 428.83594 L -182.73242 430.16992 L -180.73242 430.16992 L -180.73242 428.83594 L -168.80078 428.83594 L -168.80078 428.91406 L -166.80078 428.91406 L -166.80078 428.83594 L -143.91797 428.83594 L -143.91797 426.78906 L -166.79883 426.78906 L -166.79883 415.76953 L -168.80078 415.76953 L -168.80078 426.78906 L -180.73242 426.78906 L -182.73047 426.78906 L -212.27148 426.78906 L -212.27148 415.76953 L -214.27148 415.76953 z M -122.31836 415.76953 L -122.31836 422.96875 L -123.32812 422.96875 L -123.32812 426.78906 L -129.51953 426.78906 L -129.51953 428.83594 L -123.32812 428.83594 L -123.32812 428.91406 L -121.33008 428.91406 L -121.33008 428.83594 L -91.789062 428.83594 L -91.789062 430.16992 L -89.789062 430.16992 L -89.789062 428.83594 L -77.855469 428.83594 L -77.855469 428.91406 L -75.857422 428.91406 L -75.857422 428.83594 L -50.318359 428.83594 L -50.318359 426.78906 L -75.855469 426.78906 L -75.855469 415.76953 L -77.855469 415.76953 L -77.855469 426.78906 L -89.789062 426.78906 L -91.787109 426.78906 L -121.32812 426.78906 L -121.32812 415.76953 L -122.31836 415.76953 z M -32.384766 415.76953 L -32.384766 426.78906 L -43.119141 426.78906 L -43.119141 428.83594 L -32.384766 428.83594 L -32.384766 428.91406 L -30.386719 428.91406 L -30.386719 428.83594 L -7.1191406 428.83594 L -7.1191406 426.78906 L -30.384766 426.78906 L -30.386719 415.76953 L -32.384766 415.76953 z M 13.083984 415.76953 L 13.083984 426.78906 L 7.28125 426.78906 L 7.28125 428.83594 L 13.083984 428.83594 L 13.083984 428.91406 L 15.083984 428.91406 L 15.083984 428.83594 L 36.082031 428.83594 L 36.082031 426.78906 L 15.085938 426.78906 L 15.083984 415.76953 L 13.083984 415.76953 z M 58.556641 415.76953 L 58.556641 426.78906 L 46.626953 426.78906 L 44.626953 426.78906 L 43.28125 426.78906 L 43.28125 428.83594 L 44.625 428.83594 L 44.625 430.16992 L 46.626953 430.16992 L 46.626953 428.83594 L 58.556641 428.83594 L 58.556641 428.91406 L 60.556641 428.91406 L 60.556641 428.83594 L 64.880859 428.83594 L 64.880859 426.78906 L 60.558594 426.78906 L 60.556641 415.76953 L 58.556641 415.76953 z M 104.02734 415.76953 L 104.02734 426.78906 L 92.099609 426.78906 L 90.099609 426.78906 L 72.082031 426.78906 L 72.082031 428.83594 L 90.097656 428.83594 L 90.097656 430.16992 L 92.099609 430.16992 L 92.099609 428.83594 L 104.02734 428.83594 L 104.02734 428.91406 L 106.02734 428.91406 L 106.02734 428.83594 L 135.56836 428.83594 L 135.56836 430.16992 L 137.56836 430.16992 L 137.56836 428.83594 L 144.08203 428.83594 L 144.08203 426.78906 L 137.56836 426.78906 L 135.57031 426.78906 L 106.0293 426.78906 L 106.0293 415.76953 L 104.02734 415.76953 z M -137.25977 430.16992 L -137.25977 442.59961 L -150.2168 442.59961 L -152.2168 442.59961 L -165.51953 442.59961 L -165.51953 444.64453 L -152.2168 444.64453 L -152.2168 458.4082 L -165.51953 458.4082 L -165.51953 460.45508 L -136.71875 460.45508 L -136.71875 458.4082 L -150.21484 458.4082 L -150.2168 444.64453 L -136.71875 444.64453 L -136.71875 430.16992 L -137.25977 430.16992 z M -0.84570312 430.16992 L -0.84570312 442.59961 L -13.802734 442.59961 L -15.800781 442.59961 L -43.119141 442.59961 L -43.119141 444.64453 L -15.802734 444.64453 L -15.802734 458.4082 L -29.738281 458.4082 L -29.738281 458.33203 L -31.736328 458.33203 L -31.736328 458.4082 L -43.119141 458.4082 L -43.119141 460.45508 L -31.738281 460.45508 L -31.738281 474.2207 L -43.119141 474.2207 L -43.119141 476.26758 L -14.318359 476.26758 L -14.318359 474.2207 L -29.736328 474.2207 L -29.738281 460.45508 L -14.318359 460.45508 L -14.318359 451.76953 L -13.800781 451.76953 L -13.800781 444.64453 L 29.669922 444.64453 L 29.669922 458.4082 L 15.734375 458.4082 L 15.734375 458.33203 L 13.734375 458.33203 L 13.734375 458.4082 L -7.1191406 458.4082 L -7.1191406 458.96875 L 0.08203125 458.96875 L 0.08203125 460.45508 L 13.732422 460.45508 L 13.732422 474.2207 L 7.28125 474.2207 L 7.28125 476.26758 L 36.082031 476.26758 L 36.082031 474.2207 L 15.734375 474.2207 L 15.734375 460.45508 L 36.082031 460.45508 L 36.082031 458.4082 L 31.669922 458.4082 L 31.669922 444.64453 L 36.082031 444.64453 L 36.082031 442.59961 L 31.667969 442.59961 L 29.669922 442.59961 L 1.15625 442.59961 L 1.15625 437.36914 L 0.08203125 437.36914 L 0.08203125 430.16992 L -0.84570312 430.16992 z M -215.91797 442.59961 L -215.91797 444.64453 L -197.68945 444.64453 L -197.68945 458.4082 L -211.625 458.4082 L -211.625 458.33203 L -213.62305 458.33203 L -213.62305 458.4082 L -215.91797 458.4082 L -215.91797 460.45508 L -213.62305 460.45508 L -213.62305 474.2207 L -215.91797 474.2207 L -215.91797 476.26758 L -182.73242 476.26758 L -182.73242 487.76953 L -180.73242 487.76953 L -180.73242 476.26758 L -143.91797 476.26758 L -143.91797 474.2207 L -166.15039 474.2207 L -166.15039 466.16992 L -168.15039 466.16992 L -168.15039 474.2207 L -180.73242 474.2207 L -182.73047 474.2207 L -211.62305 474.2207 L -211.625 460.45508 L -187.11914 460.45508 L -187.11914 458.4082 L -195.6875 458.4082 L -195.68945 444.64453 L -187.11914 444.64453 L -187.11914 442.59961 L -195.68945 442.59961 L -197.68945 442.59961 L -215.91797 442.59961 z M -129.51953 442.59961 L -129.51953 444.64453 L -106.74609 444.64453 L -106.74609 458.4082 L -120.68164 458.4082 L -120.68164 458.33203 L -122.67969 458.33203 L -122.67969 458.4082 L -129.51953 458.4082 L -129.51953 460.45508 L -122.68164 460.45508 L -122.68164 474.2207 L -129.51953 474.2207 L -129.51953 476.26758 L -91.789062 476.26758 L -91.789062 487.76953 L -89.789062 487.76953 L -89.789062 476.26758 L -50.318359 476.26758 L -50.318359 474.2207 L -75.207031 474.2207 L -75.207031 460.45508 L -50.318359 460.45508 L -50.318359 458.4082 L -59.271484 458.4082 L -59.273438 444.64453 L -50.318359 444.64453 L -50.318359 442.59961 L -59.273438 442.59961 L -61.273438 442.59961 L -79.119141 442.59961 L -79.119141 444.57031 L -79.119141 444.64453 L -61.273438 444.64453 L -61.273438 458.4082 L -75.207031 458.4082 L -75.207031 458.33203 L -77.207031 458.33203 L -77.207031 458.4082 L -79.119141 458.4082 L -79.119141 458.96875 L -79.119141 460.45508 L -77.207031 460.45508 L -77.207031 474.2207 L -89.789062 474.2207 L -91.787109 474.2207 L -120.67969 474.2207 L -120.68164 460.45508 L -100.71875 460.45508 L -100.71875 458.4082 L -104.74414 458.4082 L -104.74609 444.64453 L -100.71875 444.64453 L -100.71875 442.59961 L -104.74609 442.59961 L -106.74609 442.59961 L -129.51953 442.59961 z M 93.681641 442.59961 L 93.681641 444.64453 L 120.61328 444.64453 L 120.61328 458.4082 L 106.67773 458.4082 L 106.67773 458.33203 L 104.67773 458.33203 L 104.67773 458.4082 L 93.681641 458.4082 L 93.681641 460.45508 L 104.67773 460.45508 L 104.67773 474.2207 L 93.681641 474.2207 L 93.681641 476.26758 L 122.48242 476.26758 L 122.48242 474.2207 L 106.67773 474.2207 L 106.67773 460.45508 L 122.48242 460.45508 L 122.48242 442.59961 L 120.61328 442.59961 L 93.681641 442.59961 z "
       d="m -213.58203,416.45898 v 10.33008 a 0.68987765,0.68987765 0 0 1 -0.68945,0.68946 h -0.95704 v 0.66796 h 0.95704 a 0.68987765,0.68987765 0 0 1 0.0781,0.0781 h 1.8418 a 0.68987765,0.68987765 0 0 1 0.0781,-0.0781 h 29.54102 a 0.68987765,0.68987765 0 0 1 0.68945,0.68946 v 0.64453 h 0.62109 v -0.64453 a 0.68987765,0.68987765 0 0 1 0.68946,-0.68946 h 11.93164 a 0.68987765,0.68987765 0 0 1 0.0781,0.0781 h 1.84375 a 0.68987765,0.68987765 0 0 1 0.0781,-0.0781 h 22.19336 v -0.66796 h -22.19141 a 0.68987765,0.68987765 0 0 1 -0.68945,-0.68946 v -10.33008 h -0.62305 v 10.33008 a 0.68987765,0.68987765 0 0 1 -0.68945,0.68946 h -11.93164 -1.99805 -29.54101 a 0.68987765,0.68987765 0 0 1 -0.68946,-0.68946 v -10.33008 z m 136.416014,0 v 10.33008 a 0.68987765,0.68987765 0 0 1 -0.689453,0.68946 h -11.933593 -1.998047 -29.541011 a 0.68987765,0.68987765 0 0 1 -0.68946,-0.68946 v -3.43164 a 0.68987765,0.68987765 0 0 1 -0.30078,0.30078 h -0.32031 v 3.13086 a 0.68987765,0.68987765 0 0 1 -0.68945,0.68946 h -5.50196 v 0.66796 h 5.50196 a 0.68987765,0.68987765 0 0 1 0.0781,0.0781 h 1.8418 a 0.68987765,0.68987765 0 0 1 0.0781,-0.0781 h 29.541018 a 0.68987765,0.68987765 0 0 1 0.689453,0.68946 v 0.64453 h 0.621093 v -0.64453 a 0.68987765,0.68987765 0 0 1 0.689454,-0.68946 h 11.933593 a 0.68987765,0.68987765 0 0 1 0.07813,0.0781 h 1.841797 a 0.68987765,0.68987765 0 0 1 0.07813,-0.0781 h 24.84961 v -0.66796 h -24.847657 a 0.68987765,0.68987765 0 0 1 -0.689453,-0.68946 v -10.33008 z m 45.470704,0 v 10.33008 a 0.68987765,0.68987765 0 0 1 -0.689454,0.68946 h -10.044922 v 0.66796 h 10.044922 a 0.68987765,0.68987765 0 0 1 0.07813,0.0781 h 1.841797 a 0.68987765,0.68987765 0 0 1 0.07813,-0.0781 h 22.5781252 v -0.66796 H -30.384766 a 0.68987765,0.68987765 0 0 1 -0.689453,-0.68946 l -0.002,-10.33008 z m 45.46875,0 v 10.33008 a 0.68987765,0.68987765 0 0 1 -0.689454,0.68946 H 7.9707031 v 0.66796 h 5.1132809 a 0.68987765,0.68987765 0 0 1 0.07813,0.0781 h 1.84375 a 0.68987765,0.68987765 0 0 1 0.07813,-0.0781 h 20.308594 v -0.66796 h -20.30664 a 0.68987765,0.68987765 0 0 1 -0.689454,-0.68946 l -0.002,-10.33008 z m 45.472656,0 v 10.33008 a 0.68987765,0.68987765 0 0 1 -0.689453,0.68946 h -11.929688 -2 -0.65625 v 0.66796 H 44.625 a 0.68987765,0.68987765 0 0 1 0.689453,0.68946 v 0.64453 H 45.9375 v -0.64453 a 0.68987765,0.68987765 0 0 1 0.689453,-0.68946 h 11.929688 a 0.68987765,0.68987765 0 0 1 0.07813,0.0781 h 1.84375 a 0.68987765,0.68987765 0 0 1 0.07813,-0.0781 h 3.634765 v -0.66796 h -3.632812 a 0.68987765,0.68987765 0 0 1 -0.689453,-0.68946 l -0.002,-10.33008 z m 45.470706,0 v 10.33008 a 0.68987765,0.68987765 0 0 1 -0.68946,0.68946 h -11.927731 -2 -17.328125 v 0.66796 h 17.326172 a 0.68987765,0.68987765 0 0 1 0.689453,0.68946 v 0.64453 h 0.623047 v -0.64453 a 0.68987765,0.68987765 0 0 1 0.689453,-0.68946 h 11.927731 a 0.68987765,0.68987765 0 0 1 0.0781,0.0781 h 1.84375 a 0.68987765,0.68987765 0 0 1 0.0781,-0.0781 h 29.54102 a 0.68987765,0.68987765 0 0 1 0.68945,0.68946 v 0.64453 h 0.6211 v -0.64453 a 0.68987765,0.68987765 0 0 1 0.68945,-0.68946 h 5.82422 v -0.66796 h -5.82422 -1.99805 -29.54101 a 0.68987765,0.68987765 0 0 1 -0.68946,-0.68946 V 416.45898 Z M -0.15625,437.82031 v 4.7793 a 0.68987765,0.68987765 0 0 1 -0.68945312,0.68945 H -13.802734 -15.800781 -42.429688 v 0.66602 h 26.626954 a 0.68987765,0.68987765 0 0 1 0.689453,0.68945 v 13.76367 a 0.68987765,0.68987765 0 0 1 -0.689453,0.68946 h -13.935547 a 0.68987765,0.68987765 0 0 1 -0.07617,-0.0762 h -1.845703 a 0.68987765,0.68987765 0 0 1 -0.07617,0.0762 h -10.69336 v 0.66796 h 10.691407 a 0.68987765,0.68987765 0 0 1 0.689453,0.68946 v 13.76562 a 0.68987765,0.68987765 0 0 1 -0.689453,0.68946 h -10.691407 v 0.66796 h 27.421876 v -0.66796 h -14.728516 a 0.68987765,0.68987765 0 0 1 -0.689453,-0.68946 l -0.002,-13.76562 a 0.68987765,0.68987765 0 0 1 0.689453,-0.68946 h 14.730469 v -7.99609 a 0.68987765,0.68987765 0 0 1 0.517578,-0.51758 v -6.60742 a 0.68987765,0.68987765 0 0 1 0.689453,-0.68945 h 43.470703 a 0.68987765,0.68987765 0 0 1 0.689453,0.68945 v 13.76367 a 0.68987765,0.68987765 0 0 1 -0.689453,0.68946 H 15.734375 a 0.68987765,0.68987765 0 0 1 -0.07617,-0.0762 h -1.847656 a 0.68987765,0.68987765 0 0 1 -0.07617,0.0762 H 0.77148438 v 0.66796 H 13.732422 a 0.68987765,0.68987765 0 0 1 0.689453,0.68946 v 13.76562 a 0.68987765,0.68987765 0 0 1 -0.689453,0.68946 H 7.9707031 v 0.66796 H 35.392578 v -0.66796 H 15.734375 a 0.68987765,0.68987765 0 0 1 -0.689453,-0.68946 v -13.76562 a 0.68987765,0.68987765 0 0 1 0.689453,-0.68946 h 19.658203 v -0.66796 h -3.722656 a 0.68987765,0.68987765 0 0 1 -0.689453,-0.68946 v -13.76367 a 0.68987765,0.68987765 0 0 1 0.689453,-0.68945 h 3.722656 v -0.66602 H 31.667969 29.669922 1.15625 a 0.68987765,0.68987765 0 0 1 -0.68945312,-0.68945 v -4.54102 H 0.08203125 A 0.68987765,0.68987765 0 0 1 -0.15625,437.82031 Z m -215.07227,5.46875 v 0.66602 h 17.53907 A 0.68987765,0.68987765 0 0 1 -197,444.64453 v 13.76367 a 0.68987765,0.68987765 0 0 1 -0.68945,0.68946 H -211.625 a 0.68987765,0.68987765 0 0 1 -0.0762,-0.0762 h -1.84571 a 0.68987765,0.68987765 0 0 1 -0.0762,0.0762 h -1.60547 v 0.66796 h 1.60547 a 0.68987765,0.68987765 0 0 1 0.68946,0.68946 v 13.76562 a 0.68987765,0.68987765 0 0 1 -0.68946,0.68946 h -1.60547 v 0.66796 h 32.4961 a 0.68987765,0.68987765 0 0 1 0.68945,0.68946 v 10.8125 h 0.62109 v -10.8125 a 0.68987765,0.68987765 0 0 1 0.68946,-0.68946 h 36.125 v -0.66796 h -21.54297 a 0.68987765,0.68987765 0 0 1 -0.68945,-0.68946 v -7.36132 h -0.6211 v 7.36132 a 0.68987765,0.68987765 0 0 1 -0.68945,0.68946 h -12.58203 -1.99805 -28.89258 a 0.68987765,0.68987765 0 0 1 -0.68945,-0.68946 l -0.002,-13.76562 a 0.68987765,0.68987765 0 0 1 0.68945,-0.68946 h 23.81641 v -0.66796 h -7.87891 a 0.68987765,0.68987765 0 0 1 -0.68945,-0.68946 l -0.002,-13.76367 a 0.68987765,0.68987765 0 0 1 0.68946,-0.68945 h 7.88086 v -0.66602 h -7.88086 -2 z m 50.39844,0 v 0.66602 h 12.61328 a 0.68987765,0.68987765 0 0 1 0.68946,0.68945 v 13.76367 a 0.68987765,0.68987765 0 0 1 -0.68946,0.68946 h -12.61328 v 0.66796 h 27.42188 v -0.66796 h -12.80664 a 0.68987765,0.68987765 0 0 1 -0.68946,-0.68946 l -0.002,-13.76367 a 0.68987765,0.68987765 0 0 1 0.68945,-0.68945 h 12.8086 v -0.66602 h -12.8086 -2 z m 36,0 v 0.66602 h 22.08399 a 0.68987765,0.68987765 0 0 1 0.68945,0.68945 v 13.76367 a 0.68987765,0.68987765 0 0 1 -0.68945,0.68946 h -13.93555 a 0.68987765,0.68987765 0 0 1 -0.0762,-0.0762 h -1.84571 a 0.68987765,0.68987765 0 0 1 -0.0762,0.0762 h -6.15039 v 0.66796 h 6.14844 a 0.68987765,0.68987765 0 0 1 0.68945,0.68946 v 13.76562 a 0.68987765,0.68987765 0 0 1 -0.68945,0.68946 h -6.14844 v 0.66796 h 37.041018 a 0.68987765,0.68987765 0 0 1 0.689453,0.68946 v 10.8125 h 0.621093 v -10.8125 a 0.68987765,0.68987765 0 0 1 0.689454,-0.68946 h 38.78125 v -0.66796 h -24.199219 a 0.68987765,0.68987765 0 0 1 -0.689453,-0.68946 v -13.76562 a 0.68987765,0.68987765 0 0 1 0.689453,-0.68946 h 24.199219 v -0.66796 h -8.263672 a 0.68987765,0.68987765 0 0 1 -0.689454,-0.68946 l -0.002,-13.76367 a 0.68987765,0.68987765 0 0 1 0.689453,-0.68945 h 8.265626 v -0.66602 h -8.265626 -2 -17.15625 v 0.66602 h 17.15625 a 0.68987765,0.68987765 0 0 1 0.689454,0.68945 v 13.76367 a 0.68987765,0.68987765 0 0 1 -0.689454,0.68946 h -13.933593 a 0.68987765,0.68987765 0 0 1 -0.07617,-0.0762 h -1.847656 a 0.68987765,0.68987765 0 0 1 -0.07617,0.0762 h -1.222657 v 0.66796 h 1.222657 a 0.68987765,0.68987765 0 0 1 0.689453,0.68946 v 13.76562 a 0.68987765,0.68987765 0 0 1 -0.689453,0.68946 h -12.582031 -1.998047 -28.892581 a 0.68987765,0.68987765 0 0 1 -0.68945,-0.68946 l -0.002,-13.76562 a 0.68987765,0.68987765 0 0 1 0.68945,-0.68946 h 19.27344 v -0.66796 h -3.33594 a 0.68987765,0.68987765 0 0 1 -0.68945,-0.68946 l -0.002,-13.76367 a 0.68987765,0.68987765 0 0 1 0.68946,-0.68945 h 3.33789 v -0.66602 h -3.33789 -2 z m 223.201174,0 v 0.66602 h 26.242186 a 0.68987765,0.68987765 0 0 1 0.68945,0.68945 v 13.76367 a 0.68987765,0.68987765 0 0 1 -0.68945,0.68946 h -13.93555 a 0.68987765,0.68987765 0 0 1 -0.0762,-0.0762 h -1.84765 a 0.68987765,0.68987765 0 0 1 -0.0762,0.0762 H 94.371094 v 0.66796 h 10.306636 a 0.68987765,0.68987765 0 0 1 0.68946,0.68946 v 13.76562 a 0.68987765,0.68987765 0 0 1 -0.68946,0.68946 H 94.371094 v 0.66796 h 27.421876 v -0.66796 h -15.11524 a 0.68987765,0.68987765 0 0 1 -0.68945,-0.68946 v -13.76562 a 0.68987765,0.68987765 0 0 1 0.68945,-0.68946 h 15.11524 v -16.47656 h -1.17969 z"
       transform="matrix(0.26458333,0,0,0.26458333,72.43384,-0.97599966)" /></g></svg>
